<svg width="563" height="64" viewBox="0 0 563 64" fill="none" xmlns="http://www.w3.org/2000/svg">
<g clip-path="url(#clip0_119_5662)">
<g filter="url(#filter0_d_119_5662)">
<path d="M64.8169 32C64.8169 49.664 50.2979 64 32.4084 64C14.519 64 0 49.664 0 32C0 14.336 14.519 0 32.4084 0C50.2979 0 64.8169 14.336 64.8169 32Z" fill="url(#paint0_radial_119_5662)"/>
<path d="M25.2788 41.344C23.8529 41.344 22.6861 41.216 21.7787 40.96C20.8713 40.704 19.9638 40.32 19.186 39.936L20.7416 35.712H21.1305C21.7787 36.48 22.5565 37.12 23.464 37.504C24.3714 37.888 25.4085 38.144 26.4455 38.144C26.7048 38.144 27.0937 38.144 27.4826 38.016C27.8715 38.016 28.2604 37.888 28.6493 37.76C29.0382 37.632 29.2975 37.376 29.6864 37.248C29.9456 36.992 30.2049 36.736 30.3345 36.224C30.4642 35.712 30.4642 35.456 30.2049 35.072C29.9456 34.816 29.5567 34.56 29.1678 34.432C28.6493 34.304 28.0011 34.176 27.353 33.92C26.7048 33.792 26.0566 33.536 25.5381 33.408C24.2418 32.896 23.5936 32.256 23.2047 31.36C22.9454 30.592 22.9454 29.44 23.464 28.288C24.1121 26.624 25.2788 25.216 27.0937 24.192C28.9086 23.168 30.8531 22.656 33.0568 22.656C34.0939 22.656 35.131 22.784 36.1681 23.04C37.2051 23.296 37.9829 23.552 38.7607 23.936L37.2051 28.032H36.8162C36.2977 27.52 35.6495 27.008 34.8717 26.624C34.0939 26.24 33.0569 25.984 32.0198 25.984C31.6309 25.984 31.242 25.984 30.8531 26.112C30.4642 26.112 30.0753 26.24 29.6864 26.496C29.2975 26.624 29.0382 26.88 28.7789 27.136C28.5197 27.392 28.2604 27.648 28.1308 28.032C28.0011 28.544 28.0011 28.8 28.2604 29.184C28.5197 29.44 29.0382 29.696 29.9456 29.952C30.4642 30.08 31.1123 30.208 31.6309 30.336C32.1494 30.464 32.6679 30.592 33.3161 30.848C34.4828 31.36 35.131 31.872 35.5199 32.64C35.9088 33.408 35.7792 34.432 35.3903 35.712C34.7421 37.504 33.4458 38.912 31.6309 40.064C29.816 40.832 27.7419 41.344 25.2788 41.344Z" fill="#004097"/>
<path d="M45.1128 41.472L51.4649 23.04H56.5206L62.8726 41.472H58.0762L56.9095 37.76H51.076L49.9092 41.472H45.1128ZM55.8724 34.304L53.9279 28.288L51.9834 34.304H55.8724Z" fill="#004097"/>
<path d="M47.9648 33.28H41.6127L38.6312 41.472H33.9644L40.7053 23.04H45.3721L42.9091 29.824H49.2611L47.9648 33.28Z" fill="#004097"/>
<path d="M8.29673 37.376C6.61149 37.248 5.83369 35.584 6.48186 33.792C7.25966 32 9.20417 30.72 11.019 30.976C12.7043 31.104 13.4821 32.768 12.8339 34.56C12.0561 36.352 10.1116 37.632 8.29673 37.376Z" fill="#00913A"/>
<path d="M6.87063 24.4481C10.5004 22.0161 14.6487 21.3761 17.7599 22.5281C13.3523 22.7841 8.6855 25.8561 6.61136 30.2081C5.96319 31.4881 5.70393 32.8961 5.57429 34.0481C5.57429 34.0481 5.57429 34.0481 5.57429 34.1761C3.50015 30.5921 6.09283 25.8561 6.87063 24.4481Z" fill="#004097"/>
<path d="M18.2786 34.304L18.6675 34.176C18.6675 34.048 18.7971 33.92 18.7971 33.92C18.5378 34.176 18.4082 34.304 18.2786 34.304ZM5.96337 35.584C4.79666 34.56 4.14849 33.152 4.14849 31.616C4.14849 31.36 4.14849 31.232 4.14849 30.976C4.14849 30.848 4.14849 30.72 4.14849 30.592C4.14849 30.464 4.14849 30.336 4.14849 30.208C4.14849 30.08 4.14849 29.952 4.14849 29.952C4.14849 29.824 4.14849 29.696 4.14849 29.696C4.14849 29.568 4.14849 29.44 4.14849 29.44C4.14849 29.312 4.14849 29.184 4.27813 29.184C4.27813 29.184 4.27813 29.184 4.27813 29.056C4.27813 28.928 4.27813 28.928 4.40776 28.8C4.40776 28.8 4.40776 28.8 4.40776 28.672C4.40776 28.544 4.40776 28.544 4.5374 28.416V28.288C4.5374 28.16 4.5374 28.16 4.66703 28.032V27.904C4.66703 27.776 4.66703 27.776 4.79666 27.648V27.52C4.79666 27.392 4.79666 27.392 4.9263 27.264C4.9263 27.264 4.9263 27.136 5.05593 27.136C5.18556 26.88 5.18556 26.752 5.18556 26.752C5.18556 26.752 5.18556 26.624 5.3152 26.624C5.3152 26.496 5.3152 26.496 5.44483 26.368C5.44483 26.368 5.44483 26.24 5.57447 26.24C5.57447 26.24 5.57447 26.112 5.7041 26.112C5.7041 25.984 5.83373 25.984 5.83373 25.856C5.83373 25.856 5.83373 25.728 5.96337 25.728C6.093 25.6 6.093 25.472 6.22263 25.344C5.7041 25.728 5.3152 26.112 4.79666 26.496C0.000212193 30.976 -0.907224 37.12 2.59289 40.192C2.72252 40.32 2.85216 40.448 2.98179 40.576C2.98179 40.576 3.75959 41.216 5.44483 41.728C7.00044 42.112 8.81531 42.112 10.6302 41.6C11.5376 41.344 12.4451 41.088 13.2229 40.704C13.6118 40.448 14.1303 40.192 14.5192 39.808C16.8526 37.12 17.5008 35.456 17.6304 34.688C13.6118 37.504 8.68568 38.016 5.96337 35.584Z" fill="#00913A"/>
<path d="M17.7602 23.0401C15.8157 23.0401 14.0009 23.8081 12.7045 24.4481C12.186 24.7041 11.5378 24.9601 11.0193 25.3441C10.8896 25.3441 10.8896 25.4721 10.8896 25.4721C11.6675 25.3441 12.4453 25.4721 13.2231 25.6001C18.0195 26.3681 19.964 31.1041 17.6306 36.0961C16.9824 37.5041 16.075 38.6561 15.0379 39.8081C15.2972 39.6801 15.5565 39.5521 15.6861 39.4241C15.6861 39.4241 15.6861 39.4241 15.5565 39.5521C17.8899 38.1441 19.8344 35.7121 21.0011 33.0241C21.2604 32.5121 21.39 32.0001 21.5196 31.6161C22.6863 26.8801 21.2604 22.9121 17.7602 23.0401Z" fill="#EC6C00"/>
</g>
<g filter="url(#filter1_d_119_5662)">
<path d="M96.5805 14.3553C96.5805 15.9026 96.2956 17.1686 96.0107 18.2939C97.4353 19.1379 99.4298 20.4039 100.569 21.2479L99.4298 22.2326H100.285V26.4526H98.1476V24.0613H83.1891V26.4526H81.1946V22.2326H81.3371C81.1946 21.8106 80.7672 21.2479 80.3398 20.8259C84.3288 19.8413 84.8986 18.0126 85.0411 14.2146H86.8931C86.8931 15.9026 86.7506 17.1686 86.3233 18.2939C87.463 18.9973 88.8876 19.8413 89.5999 20.5446L88.1753 21.8106C87.6054 21.2479 86.4657 20.5446 85.4685 19.8413C84.7562 20.9666 83.6165 21.6699 81.7645 22.2326H98.575C97.5778 21.5293 96.1532 20.5446 94.871 19.7006C94.1587 20.8259 92.8765 21.6699 90.882 22.2326C90.7396 21.8106 90.1697 21.1073 89.7423 20.6853C93.5888 19.7006 94.0162 17.8719 94.3011 14.2146H96.5805V14.3553ZM98.575 26.5933C98.575 26.5933 98.575 27.1559 98.575 27.4373C98.2901 31.6573 98.0052 33.4859 97.2928 34.1893C96.8655 34.7519 96.2956 34.8926 95.4408 34.8926C94.7285 34.8926 93.4464 34.8926 92.0217 34.8926C92.0217 34.3299 91.7368 33.4859 91.3094 32.9233C92.5916 33.0639 94.0162 33.0639 94.5861 33.0639C95.0134 33.0639 95.2984 33.0639 95.5833 32.7826C96.0107 32.3606 96.2956 31.2353 96.4381 28.4219H90.7396C89.8848 31.9386 87.7479 33.9079 81.7645 35.0333C81.622 34.4706 81.0522 33.6266 80.6248 33.2046C85.6109 32.3606 87.463 30.9539 88.3177 28.5626H82.6192V26.7339H88.7451C88.8876 26.0306 88.8876 25.3273 88.8876 24.4833H91.167C91.167 25.3273 91.0245 26.0306 91.0245 26.7339H98.575V26.5933ZM82.7617 18.4346C82.3343 17.8719 81.4795 16.8873 80.9097 16.3246L82.1919 15.3399C82.9042 16.0433 83.7589 16.8873 84.1863 17.4499L82.7617 18.4346ZM90.5971 16.0433C89.8848 16.8873 89.1725 17.8719 88.6027 18.4346L87.3205 17.8719C87.8903 17.1686 88.4602 16.0433 88.8876 15.3399L90.5971 16.0433ZM92.4491 18.2939C92.0217 17.7313 91.3094 16.8873 90.7396 16.3246L91.8793 15.3399C92.4491 15.9026 93.3039 16.6059 93.7313 17.1686L92.4491 18.2939ZM100.569 16.0433C99.8572 17.0279 99.0024 18.0126 98.2901 18.5753L97.0079 18.0126C97.5778 17.3093 98.2901 16.1839 98.7175 15.3399L100.569 16.0433Z" fill="black"/>
<path d="M123.506 19.4194C123.506 19.4194 123.506 20.1227 123.506 20.4041C123.221 29.6881 123.078 32.9234 122.366 33.9081C121.939 34.6114 121.511 34.7521 120.799 34.8927C120.087 35.0334 119.09 35.0334 117.95 34.8927C117.95 34.3301 117.665 33.4861 117.38 32.9234C118.377 33.0641 119.374 33.0641 119.802 33.0641C120.229 33.0641 120.372 33.0641 120.657 32.6421C121.226 32.0794 121.369 29.1254 121.511 21.3887H118.805C118.52 27.4374 117.522 32.2201 113.534 35.1741C113.249 34.7521 112.536 33.9081 111.966 33.6267C112.109 33.4861 112.251 33.4861 112.394 33.3454C109.117 33.7674 105.841 34.0487 103.419 34.3301L103.134 32.5014C104.416 32.3607 106.125 32.2201 107.835 32.0794V30.3914H103.704V28.8441H107.835V27.7187H103.704V20.9667H107.835V19.8414H103.134V18.2941H107.835V17.0281C106.41 17.1687 104.986 17.1687 103.846 17.3094C103.846 16.8874 103.561 16.1841 103.276 15.7621C106.695 15.6214 110.684 15.1994 113.106 14.6367L114.103 16.1841C112.964 16.4654 111.397 16.6061 109.83 16.7467V18.1534H114.388V19.4194H116.81C116.81 17.8721 116.81 16.3247 116.81 14.6367H118.805C118.805 16.3247 118.805 17.8721 118.805 19.4194H123.506ZM105.413 23.6394H107.693V22.2327H105.413V23.6394ZM107.835 26.3121V24.9054H105.556V26.3121H107.835ZM109.687 31.7981C111.112 31.6574 112.536 31.5167 113.961 31.3761C115.813 28.8441 116.383 25.4681 116.525 21.3887H114.103V19.7007H109.545V20.8261H113.818V27.7187H109.545V28.8441H113.818V30.3914H109.545V31.7981H109.687ZM112.251 23.6394V22.2327H109.83V23.6394H112.251ZM109.687 24.9054V26.3121H112.251V24.9054H109.687Z" fill="black"/>
<path d="M136.47 19.2786C135.9 20.5446 135.33 21.8106 134.903 22.9359H137.895V24.7646H125.928V22.9359H129.347C129.204 21.9513 128.635 20.4039 128.065 19.2786L129.917 18.8566C130.487 19.9819 131.056 21.5293 131.341 22.5139L129.632 22.9359H133.051C133.621 21.8106 134.191 19.9819 134.618 18.8566L136.47 19.2786ZM137.467 18.7159H126.64V16.8873H131.199C130.914 16.1839 130.629 15.3399 130.344 14.7773L132.196 14.2146C132.623 15.0586 133.051 16.1839 133.336 16.8873H137.325V18.7159H137.467ZM127.21 26.5933H136.897V34.7519H134.76V33.9079H129.204V34.8926H127.21V26.5933ZM129.204 28.5626V32.0793H134.76V28.5626H129.204ZM146.585 16.3246C145.73 18.4346 144.733 20.9666 143.878 23.0766C145.872 25.1866 146.3 26.8746 146.3 28.4219C146.3 29.8286 146.015 30.9539 145.16 31.5166C144.733 31.7979 144.305 31.9386 143.736 32.0793C143.166 32.0793 142.453 32.0793 141.884 32.0793C141.884 31.5166 141.741 30.6726 141.314 30.1099C141.884 30.1099 142.453 30.1099 142.881 30.1099C143.166 30.1099 143.593 29.9693 143.736 29.8286C144.163 29.5473 144.305 28.9846 144.305 28.1406C144.305 26.8746 143.736 25.1866 141.884 23.3579C142.596 21.5293 143.451 19.2786 144.02 17.4499H140.886V35.0333H139.034V15.4806H144.875L145.16 15.3399L146.585 16.3246Z" fill="black"/>
<path d="M154.99 17.1686V35.0333H153.281V30.8133C151.714 31.0946 150.146 31.5166 148.722 31.7979L148.294 29.9693C148.722 29.9693 149.149 29.8286 149.577 29.8286V17.1686H148.437V15.3399H155.702V17.1686H154.99ZM153.423 17.1686H151.429V19.9819H153.423V17.1686ZM153.423 21.6699H151.429V24.4833H153.423V21.6699ZM151.429 29.4066C151.998 29.2659 152.711 29.1253 153.423 28.9846V26.1713H151.429V29.4066ZM169.236 24.6239C168.524 26.7339 167.527 28.5626 166.387 30.2506C166.672 31.7979 167.099 32.6419 167.527 32.6419C167.812 32.6419 168.097 31.5166 168.239 29.6879C168.524 30.1099 169.236 30.6726 169.521 30.8133C169.094 34.1893 168.239 35.0333 167.384 35.0333C166.245 35.0333 165.532 33.9079 164.963 31.9386C163.965 33.0639 162.683 34.0486 161.543 34.8926C161.258 34.4706 160.689 34.0486 160.261 33.7673C160.831 33.3453 161.401 32.9233 161.971 32.5013H160.689V31.9386H157.982V33.3453H156.272V23.7799H162.256V31.9386C162.968 31.3759 163.68 30.5319 164.25 29.8286C163.823 27.8593 163.68 25.4679 163.538 22.7953H155.56V20.9666H156.842C156.7 20.2633 156.557 19.2786 156.272 18.5753L157.697 18.2939C157.982 19.1379 158.267 20.1226 158.267 20.9666H159.691C159.976 20.1226 160.119 19.1379 160.261 18.2939L161.971 18.5753C161.686 19.4193 161.543 20.2633 161.258 20.9666H163.253C163.111 18.8566 163.11 16.6059 163.11 14.2146H164.963C164.963 16.6059 164.963 18.8566 165.105 20.9666H169.094V22.7953H165.105C165.247 24.6239 165.39 26.3119 165.532 27.7186C166.245 26.4526 166.815 25.1866 167.242 23.7799L169.236 24.6239ZM162.968 18.2939H156.13V16.6059H158.694C158.552 16.0433 158.267 15.3399 157.982 14.7773L159.691 14.4959C159.976 15.1993 160.261 16.0433 160.546 16.7466H162.826V18.2939H162.968ZM158.124 25.3273V27.0153H160.831V25.3273H158.124ZM160.974 30.3913V28.5626H158.267V30.3913H160.974ZM167.242 20.2633C166.957 19.1379 166.245 17.4499 165.675 16.3246L167.242 15.7619C167.954 17.0279 168.667 18.5753 168.951 19.7006L167.242 20.2633Z" fill="black"/>
<path d="M179.921 31.3759C178.354 32.6419 175.504 33.7673 173.082 34.3299C172.798 33.9079 172.228 33.2046 171.8 32.7826C174.08 32.5013 176.929 31.6573 178.354 30.6726L179.921 31.3759ZM191.887 27.9999V29.6879H182.912V34.8926H180.775V29.6879H171.943V27.9999H180.775V26.5933H174.08V25.0459H180.775V23.6393H172.94V22.0919H177.499C177.214 21.5293 176.929 20.6853 176.502 20.1226L177.784 19.8413H172.085V18.1533H175.504C175.219 17.3093 174.507 16.0433 173.795 15.0586L175.647 14.4959C176.359 15.4806 177.214 16.8873 177.499 17.7313L176.359 18.1533H178.923V14.2146H180.918V18.1533H183.197V14.2146H185.192V18.1533H187.614L186.759 17.8719C187.329 17.0279 188.041 15.6213 188.326 14.4959L190.463 15.0586C189.893 16.1839 189.181 17.3093 188.611 18.1533H191.887V19.8413H185.904L187.614 20.2633C187.044 20.9666 186.616 21.5293 186.189 22.0919H191.033V23.7799H182.912V25.1866H189.893V26.7339H182.912V28.1406H191.887V27.9999ZM178.638 19.8413C179.066 20.4039 179.493 21.2479 179.778 21.8106L178.781 22.0919H185.049L184.194 21.8106C184.622 21.2479 185.192 20.4039 185.477 19.8413H178.638ZM185.477 30.5319C187.471 31.2353 190.32 32.3606 191.745 33.0639L190.32 34.3299C188.896 33.6266 186.189 32.5013 184.052 31.6573L185.477 30.5319Z" fill="black"/>
<path d="M210.123 25.1866C209.553 27.0153 208.698 28.5626 207.701 29.8286C210.265 30.954 212.687 32.0793 214.397 33.064L212.83 34.8926C211.263 33.7673 208.841 32.5013 206.134 31.376C203.855 33.2046 200.578 34.33 196.304 34.8926C196.162 34.33 195.449 33.3453 195.022 32.7826C198.726 32.3606 201.575 31.6573 203.712 30.2506C201.575 29.4066 199.581 28.7033 197.586 28C198.156 27.156 198.868 26.1713 199.581 25.046H194.879V23.0766H200.72C201.433 21.8106 202.003 20.5446 202.43 19.2786L204.852 19.7006C204.424 20.826 203.855 21.9513 203.285 22.936H208.128C208.271 22.2326 208.413 21.5293 208.413 20.826L210.978 20.9666C210.835 21.67 210.693 22.2326 210.55 22.936H214.397V24.9053H210.123V25.1866ZM197.444 21.5293H195.307V16.7466H203.57C203.285 16.0433 202.857 15.1993 202.572 14.6366L204.852 14.074C205.279 14.918 205.849 15.9026 206.134 16.7466H213.827V21.5293H211.547V18.716H197.301V21.5293H197.444ZM202.145 25.1866C201.718 25.89 201.29 26.5933 200.863 27.2966C202.287 27.8593 203.855 28.2813 205.422 28.9846C206.419 28 207.131 26.734 207.559 25.3273H202.145V25.1866Z" fill="black"/>
<path d="M228.5 32.5013H237.191V34.33H217.958V32.5013H226.363V29.1253H220.238V27.2966H226.363V24.202H221.235V22.3733C220.238 23.0766 219.24 23.6393 218.243 24.202C217.958 23.6393 217.388 22.936 216.961 22.514C219.668 21.3886 222.802 19.138 225.081 16.8873H221.52V14.918H228.785C230.78 17.872 234.626 20.826 238.33 22.2326C237.903 22.6546 237.191 23.4986 236.906 24.0613C235.908 23.6393 234.911 23.0766 233.914 22.3733V24.0613H228.643V27.156H234.911V28.9846H228.643V32.5013H228.5ZM221.235 22.514H233.629C231.35 20.9666 229.07 18.9973 227.503 16.8873C225.794 18.8566 223.514 20.826 221.235 22.514Z" fill="black"/>
<path d="M245.454 19.8413C245.026 20.6853 244.599 21.5293 244.029 22.2326V35.0333H242.177V25.0459C241.607 25.7493 241.037 26.4526 240.467 27.0153C240.325 26.5933 239.613 25.6086 239.328 25.1866C241.037 23.6393 242.747 21.2479 243.744 18.9973L245.454 19.5599V19.1379H247.733C247.875 18.5753 248.018 18.0126 248.018 17.4499H246.166V15.9026H248.445C248.588 15.3399 248.588 14.7773 248.588 14.2146L250.44 14.3553C250.44 14.9179 250.297 15.3399 250.155 15.9026H253.716V18.9973H254.998V20.6853H245.454V19.8413ZM245.311 15.0586C244.171 16.8873 242.319 18.9973 240.752 20.2633C240.467 19.8413 240.04 18.9973 239.613 18.7159C241.037 17.5906 242.604 15.7619 243.459 14.3553L245.311 15.0586ZM251.864 32.3606V35.0333H250.012V32.3606H245.454C245.596 31.5166 245.881 30.1099 246.023 28.9846H245.169V27.4373H250.012V26.3119H246.166V21.8106H254.144V26.3119H251.864V27.4373H254.714V28.9846H251.864V30.8133H255.141V32.3606H251.864ZM250.012 30.8133V28.9846H247.733C247.59 29.5473 247.59 30.2506 247.448 30.8133H250.012ZM247.733 24.9053H252.434V23.2173H247.733V24.9053ZM249.87 17.4499C249.727 18.0126 249.727 18.5753 249.585 19.1379H251.864V17.4499H249.87ZM260.697 23.4986H258.987V32.5013C258.987 33.4859 258.845 34.1893 258.133 34.4706C257.42 34.7519 256.423 34.8926 254.998 34.8926C254.998 34.3299 254.714 33.4859 254.429 32.9233C255.426 32.9233 256.281 32.9233 256.566 32.9233C256.85 32.9233 256.993 32.7826 256.993 32.6419V23.4986H254.714V21.6699H260.697V23.4986ZM260.412 17.5906H255.141V15.7619H260.412V17.5906Z" fill="black"/>
<path d="M283.206 32.2199V34.1892H262.976V32.2199H271.951V27.0152H265.398V25.0459H271.951V20.5446H266.823C266.11 21.9512 265.398 23.0766 264.543 24.0612C264.116 23.6392 263.119 23.0766 262.549 22.7952C264.401 20.8259 265.825 17.7312 266.68 14.6366L268.817 15.1992C268.532 16.3246 268.105 17.4499 267.677 18.5752H271.809V14.3552H273.946V18.5752H281.924V20.6852H273.946V25.1866H281.069V27.1559H273.946V32.3606H283.206V32.2199Z" fill="black"/>
<path d="M298.877 26.0306C298.022 26.4526 297.167 26.8746 296.312 27.2966H304.005V34.8926H302.011V34.3299H292.608V35.0332H290.614V29.5472C289.189 29.9692 287.765 30.3912 286.483 30.6726C286.34 30.2506 285.77 29.2659 285.485 28.8439C288.62 28.2812 291.896 27.2966 294.745 26.0306H285.913V24.3426H294.318V22.9359H288.335V21.2479H294.318V19.9819H287.195V15.1992H304.86V19.9819H296.312V21.2479H301.156V22.5139C302.011 21.9512 302.723 21.2479 303.436 20.5446L305.145 21.5292C304.148 22.5139 303.008 23.4986 301.726 24.3426H306V26.0306H298.877ZM292.181 16.6059H289.047V18.4346H292.181V16.6059ZM301.869 28.8439H292.466V30.1099H301.869V28.8439ZM301.869 32.7826V31.3759H292.466V32.7826H301.869ZM294.176 18.4346H297.452V16.6059H294.176V18.4346ZM298.164 24.3426C299.019 23.9206 299.732 23.3579 300.444 22.9359H296.17V24.3426H298.164ZM299.304 18.4346H302.581V16.6059H299.304V18.4346Z" fill="black"/>
</g>
<path d="M84.7965 43.3921C86.0928 43.3921 87.2595 43.9041 88.1669 44.8001C89.0744 45.6961 89.5929 46.8481 89.5929 48.1281C89.5929 49.4081 89.0744 50.5601 88.1669 51.4561C87.2595 52.3521 86.0928 52.8641 84.7965 52.8641C83.5001 52.8641 82.3334 52.3521 81.426 51.4561C80.5185 50.5601 80 49.4081 80 48.1281C80 47.2321 80.2593 46.4641 80.6482 45.6961C81.0371 44.9281 81.6852 44.4161 82.3334 44.0321C83.2408 43.6481 84.0186 43.3921 84.7965 43.3921ZM84.9261 44.2881C84.2779 44.2881 83.6297 44.4161 82.9816 44.8001C82.3334 45.1841 81.9445 45.5681 81.5556 46.2081C81.1667 46.8481 81.0371 47.4881 81.0371 48.1281C81.0371 49.1521 81.426 50.0481 82.2038 50.8161C82.9816 51.5841 83.889 51.9681 84.9261 51.9681C85.5743 51.9681 86.2224 51.8401 86.8706 51.4561C87.5188 51.0721 87.9077 50.6881 88.2966 50.0481C88.6855 49.4081 88.8151 48.7681 88.8151 48.1281C88.8151 47.3601 88.6855 46.8481 88.2966 46.2081C87.9077 45.5681 87.3891 45.1841 86.8706 44.8001C86.3521 44.4161 85.5743 44.2881 84.9261 44.2881Z" fill="#333333"/>
<path d="M100.482 45.3121L99.8339 45.8241C99.445 45.3121 98.9265 44.9281 98.408 44.6721C97.8894 44.4161 97.2412 44.2881 96.5931 44.2881C95.8153 44.2881 95.1671 44.4161 94.6486 44.8001C94.13 45.1841 93.6115 45.5681 93.2226 46.2081C92.8337 46.7201 92.7041 47.4881 92.7041 48.1281C92.7041 49.1521 93.093 50.1761 93.8708 50.8161C94.6486 51.4561 95.556 51.8401 96.7227 51.8401C98.019 51.8401 99.0561 51.3281 99.8339 50.4321L100.482 50.9441C100.093 51.4561 99.445 51.9681 98.7969 52.2241C98.1487 52.4801 97.3709 52.7361 96.5931 52.7361C95.0375 52.7361 93.7411 52.2241 92.8337 51.2001C92.0559 50.3041 91.667 49.2801 91.667 48.0001C91.667 46.7201 92.1855 45.5681 93.093 44.6721C94.0004 43.7761 95.1671 43.3921 96.5931 43.3921C97.3709 43.3921 98.1487 43.5201 98.9265 43.9041C99.5747 44.1601 100.093 44.6721 100.482 45.3121Z" fill="#333333"/>
<path d="M111.371 45.3121L110.723 45.8241C110.334 45.3121 109.816 44.9281 109.297 44.6721C108.779 44.4161 108.13 44.2881 107.482 44.2881C106.704 44.2881 106.056 44.4161 105.538 44.8001C105.019 45.1841 104.501 45.5681 104.112 46.2081C103.723 46.7201 103.593 47.4881 103.593 48.1281C103.593 49.1521 103.982 50.1761 104.76 50.8161C105.538 51.4561 106.445 51.8401 107.612 51.8401C108.908 51.8401 109.945 51.3281 110.723 50.4321L111.371 50.9441C110.982 51.4561 110.334 51.9681 109.686 52.2241C109.038 52.4801 108.26 52.7361 107.482 52.7361C105.927 52.7361 104.63 52.2241 103.723 51.2001C102.945 50.3041 102.556 49.2801 102.556 48.0001C102.556 46.7201 103.075 45.5681 103.982 44.6721C104.89 43.7761 106.056 43.3921 107.482 43.3921C108.26 43.3921 109.038 43.5201 109.816 43.9041C110.334 44.1601 110.982 44.6721 111.371 45.3121Z" fill="#333333"/>
<path d="M113.834 43.6482H114.742V49.0242C114.742 49.6642 114.742 50.0482 114.742 50.1762C114.742 50.5602 114.872 50.8162 115.001 51.0722C115.131 51.3282 115.39 51.4562 115.779 51.7122C116.168 51.9682 116.427 51.9682 116.816 51.9682C117.075 51.9682 117.335 51.9682 117.723 51.8402C117.983 51.7122 118.242 51.5842 118.372 51.3282C118.501 51.0722 118.631 50.8162 118.761 50.5602C118.761 50.3042 118.89 49.9202 118.89 49.1522V43.7762H119.798V49.1522C119.798 49.9202 119.668 50.5602 119.538 51.0722C119.409 51.5842 119.02 51.9682 118.631 52.3522C118.112 52.7362 117.594 52.8642 116.946 52.8642C116.168 52.8642 115.649 52.7362 115.131 52.3522C114.612 51.9682 114.223 51.5842 114.094 50.9442C113.964 50.5602 113.964 49.9202 113.964 49.0242V43.6482H113.834Z" fill="#333333"/>
<path d="M122.779 43.6482H124.464C125.501 43.6482 126.15 43.6482 126.538 43.7762C127.057 43.9042 127.446 44.1602 127.835 44.5442C128.224 44.9282 128.353 45.4402 128.353 45.9522C128.353 46.5922 128.224 46.9762 127.835 47.3602C127.575 47.7442 127.057 48.0002 126.538 48.1282C126.15 48.2562 125.372 48.2562 124.205 48.2562H123.557V52.4802H122.649V43.6482H122.779ZM123.686 44.5442V47.6162H125.242C125.89 47.6162 126.279 47.6162 126.538 47.4882C126.798 47.3602 127.057 47.2322 127.187 46.9762C127.316 46.7202 127.446 46.4642 127.446 46.2082C127.446 45.9522 127.316 45.6962 127.187 45.4402C127.057 45.1842 126.798 45.0562 126.538 44.9282C126.279 44.8002 125.89 44.8002 125.242 44.8002H123.686V44.5442Z" fill="#333333"/>
<path d="M134.446 43.6482L138.724 52.4802H137.817L136.391 49.5362H132.502L131.076 52.4802H130.039L134.316 43.6482H134.446ZM134.446 45.5682L132.891 48.7682H136.002L134.446 45.5682Z" fill="#333333"/>
<path d="M139.891 44.5442V43.6482H144.817V44.5442H142.872V52.4802H141.965V44.4162H139.891V44.5442Z" fill="#333333"/>
<path d="M146.632 43.6482H147.539V52.4802H146.632V43.6482Z" fill="#333333"/>
<path d="M154.54 43.3921C155.836 43.3921 157.003 43.9041 157.91 44.8001C158.818 45.6961 159.336 46.8481 159.336 48.1281C159.336 49.4081 158.818 50.5601 157.91 51.4561C157.003 52.3521 155.836 52.8641 154.54 52.8641C153.243 52.8641 152.077 52.3521 151.169 51.4561C150.262 50.5601 149.743 49.4081 149.743 48.1281C149.743 47.2321 150.002 46.4641 150.391 45.6961C150.78 44.9281 151.428 44.4161 152.077 44.0321C152.984 43.6481 153.762 43.3921 154.54 43.3921ZM154.669 44.2881C154.021 44.2881 153.373 44.4161 152.725 44.8001C152.077 45.1841 151.688 45.5681 151.299 46.2081C150.91 46.8481 150.78 47.4881 150.78 48.1281C150.78 49.1521 151.169 50.0481 151.947 50.8161C152.725 51.5841 153.632 51.9681 154.669 51.9681C155.317 51.9681 155.966 51.8401 156.614 51.4561C157.262 51.0721 157.651 50.6881 158.04 50.0481C158.429 49.4081 158.558 48.7681 158.558 48.1281C158.558 47.3601 158.429 46.8481 158.04 46.2081C157.651 45.5681 157.262 45.1841 156.614 44.8001C155.966 44.4161 155.317 44.2881 154.669 44.2881Z" fill="#333333"/>
<path d="M161.929 52.4802V43.6482H162.188L168.151 50.4322V43.6482H169.059V52.4802H168.799L162.836 45.8242V52.4802H161.929Z" fill="#333333"/>
<path d="M175.54 43.6482L179.688 52.4802H178.781L177.355 49.5362H173.466L172.04 52.4802H171.003L175.281 43.6482H175.54ZM175.41 45.5682L173.855 48.7682H176.966L175.41 45.5682Z" fill="#333333"/>
<path d="M181.763 43.6482H182.67V51.7122H186.17V52.4802H181.763V43.6482Z" fill="#333333"/>
<path d="M191.485 50.8162L192.263 50.3042C192.781 51.3282 193.429 51.7122 194.078 51.7122C194.337 51.7122 194.726 51.5842 194.985 51.4562C195.244 51.3282 195.504 51.0722 195.633 50.9442C195.763 50.6882 195.892 50.4322 195.892 50.1762C195.892 49.9202 195.763 49.5362 195.633 49.2802C195.374 48.8962 194.855 48.3842 194.078 47.8722C193.3 47.3602 192.911 46.8482 192.652 46.7202C192.392 46.3362 192.133 45.8242 192.133 45.3122C192.133 44.9282 192.263 44.5442 192.392 44.2882C192.522 44.0322 192.781 43.7762 193.17 43.5202C193.559 43.2642 193.818 43.2642 194.337 43.2642C194.726 43.2642 195.115 43.3922 195.504 43.5202C195.892 43.7762 196.281 44.1602 196.67 44.6722L195.892 45.1842C195.504 44.8002 195.244 44.4162 194.985 44.2882C194.726 44.1602 194.466 44.0322 194.207 44.0322C193.818 44.0322 193.559 44.1602 193.3 44.4162C193.04 44.6722 192.911 44.9282 192.911 45.1842C192.911 45.4402 192.911 45.5682 193.04 45.6962C193.17 45.8242 193.3 46.0802 193.429 46.3362C193.559 46.4642 193.948 46.7202 194.596 47.2322C195.374 47.7442 195.892 48.2562 196.152 48.7682C196.411 49.2802 196.541 49.6642 196.541 50.0482C196.541 50.6882 196.281 51.2002 195.763 51.7122C195.244 52.2242 194.726 52.4802 193.948 52.4802C193.429 52.4802 192.911 52.3522 192.522 52.0962C192.263 51.9682 191.874 51.5842 191.485 50.8162Z" fill="#333333"/>
<path d="M203.022 43.6482L207.171 52.4802H206.133L204.708 49.5362H200.819L199.393 52.4802H198.355L202.633 43.6482H203.022ZM202.893 45.5682L201.337 48.7682H204.448L202.893 45.5682Z" fill="#333333"/>
<path d="M209.245 43.6482H213.782V44.5442H210.153V47.3602H213.782V48.2562H210.153V52.4802H209.245V43.6482Z" fill="#333333"/>
<path d="M215.986 43.6482H221.171V44.5442H216.893V47.3602H221.171V48.2562H216.893V51.7122H221.171V52.4802H216.115V43.6482H215.986Z" fill="#333333"/>
<path d="M222.468 44.5442V43.6482H227.394V44.5442H225.449V52.4802H224.542V44.4162H222.468V44.5442Z" fill="#333333"/>
<path d="M228.69 43.6482H229.727L232.06 47.3602L234.264 43.6482H235.301L232.449 48.2562V52.4802H231.542V48.2562L228.69 43.6482Z" fill="#333333"/>
<path d="M245.283 43.6482L249.432 52.4802H248.524L247.098 49.5362H243.209L241.783 52.4802H240.746L245.024 43.6482H245.283ZM245.283 45.5682L243.728 48.7682H246.839L245.283 45.5682Z" fill="#333333"/>
<path d="M251.635 52.4802V43.6482H251.895L257.858 50.4322V43.6482H258.765V52.4802H258.506L252.543 45.8242V52.4802H251.635Z" fill="#333333"/>
<path d="M261.487 52.4802V43.6482H263.302C264.599 43.6482 265.636 43.7762 266.284 43.9042C267.191 44.1602 267.839 44.6722 268.358 45.4402C268.876 46.2082 269.136 47.1042 269.136 48.1282C269.136 49.0242 268.876 49.7922 268.488 50.4322C268.099 51.0722 267.58 51.5842 266.932 51.9682C266.284 52.3522 265.376 52.4802 264.339 52.4802H261.487ZM262.395 51.7122H263.432C264.728 51.7122 265.506 51.5842 266.024 51.4562C266.673 51.2002 267.191 50.8162 267.58 50.3042C267.969 49.7922 268.099 49.0242 268.099 48.2562C268.099 47.3602 267.839 46.7202 267.45 46.0802C267.062 45.4402 266.413 45.0562 265.636 44.8002C265.117 44.6722 264.21 44.5442 262.913 44.5442H262.265V51.7122H262.395Z" fill="#333333"/>
<path d="M275.747 43.6482H276.655V47.3602H281.192V43.6482H282.099V52.4802H281.192V48.2562H276.655V52.4802H275.747V43.6482Z" fill="#333333"/>
<path d="M284.951 43.6482H290.137V44.5442H285.859V47.3602H290.137V48.2562H285.859V51.7122H290.137V52.4802H285.081V43.6482H284.951Z" fill="#333333"/>
<path d="M295.97 43.6482L300.118 52.4802H299.211L297.785 49.5362H293.896L292.47 52.4802H291.433L295.711 43.6482H295.97ZM295.84 45.5682L294.285 48.7682H297.396L295.84 45.5682Z" fill="#333333"/>
<path d="M302.322 43.6482H303.229V51.7122H306.729V52.4802H302.322V43.6482Z" fill="#333333"/>
<path d="M307.896 44.5442V43.6482H312.822V44.5442H310.878V52.4802H309.841V44.4162H307.896V44.5442Z" fill="#333333"/>
<path d="M314.767 43.6482H315.674V47.3602H320.211V43.6482H321.119V52.4802H320.211V48.2562H315.674V52.4802H314.767V43.6482Z" fill="#333333"/>
<path d="M331.878 43.6482L336.027 52.4802H335.119L333.693 49.5362H329.804L328.378 52.4802H327.341L331.619 43.6482H331.878ZM331.749 45.5682L330.193 48.7682H333.304L331.749 45.5682Z" fill="#333333"/>
<path d="M338.101 52.4802V43.6482H339.916C341.212 43.6482 342.249 43.7762 342.898 43.9042C343.805 44.1602 344.453 44.6722 344.972 45.4402C345.49 46.2082 345.749 47.1042 345.749 48.1282C345.749 49.0242 345.62 49.7922 345.101 50.4322C344.712 51.0722 344.194 51.5842 343.546 51.9682C342.898 52.3522 341.99 52.4802 340.953 52.4802H338.101ZM339.009 51.7122H340.046C341.342 51.7122 342.12 51.5842 342.638 51.4562C343.286 51.2002 343.805 50.8162 344.194 50.3042C344.583 49.7922 344.712 49.0242 344.712 48.2562C344.712 47.3602 344.453 46.7202 344.064 46.0802C343.675 45.4402 343.027 45.0562 342.249 44.8002C341.731 44.6722 340.823 44.5442 339.527 44.5442H338.879V51.7122H339.009Z" fill="#333333"/>
<path d="M347.694 52.4802L348.99 43.6482H349.12L352.75 50.9442L356.379 43.6482H356.509L357.805 52.4802H356.898L355.99 46.0802L352.75 52.4802H352.62L349.379 46.0802L348.472 52.4802H347.694Z" fill="#333333"/>
<path d="M360.139 43.6482H361.046V52.4802H360.139V43.6482Z" fill="#333333"/>
<path d="M363.769 52.4802V43.6482H364.028L369.991 50.4322V43.6482H370.898V52.4802H370.639L364.676 45.8242V52.4802H363.769Z" fill="#333333"/>
<path d="M373.621 43.6482H374.528V52.4802H373.621V43.6482Z" fill="#333333"/>
<path d="M376.343 50.8162L377.121 50.3042C377.639 51.3282 378.287 51.7122 378.935 51.7122C379.195 51.7122 379.584 51.5842 379.843 51.4562C380.102 51.3282 380.361 51.0722 380.491 50.9442C380.621 50.6882 380.75 50.4322 380.75 50.1762C380.75 49.9202 380.621 49.5362 380.491 49.2802C380.232 48.8962 379.713 48.3842 378.935 47.8722C378.158 47.3602 377.769 46.8482 377.51 46.7202C377.25 46.3362 376.991 45.8242 376.991 45.3122C376.991 44.9282 377.121 44.5442 377.25 44.2882C377.38 44.0322 377.639 43.7762 378.028 43.5202C378.417 43.2642 378.676 43.2642 379.195 43.2642C379.584 43.2642 379.973 43.3922 380.361 43.5202C380.75 43.7762 381.139 44.1602 381.528 44.6722L380.75 45.1842C380.361 44.8002 380.102 44.4162 379.843 44.2882C379.584 44.1602 379.324 44.0322 379.065 44.0322C378.676 44.0322 378.417 44.1602 378.158 44.4162C377.898 44.6722 377.769 44.9282 377.769 45.1842C377.769 45.4402 377.769 45.5682 377.898 45.6962C378.028 45.8242 378.158 46.0802 378.287 46.3362C378.417 46.4642 378.806 46.7202 379.454 47.2322C380.232 47.7442 380.75 48.2562 381.01 48.7682C381.269 49.1522 381.399 49.6642 381.399 50.0482C381.399 50.6882 381.139 51.2002 380.621 51.7122C380.102 52.2242 379.584 52.4802 378.806 52.4802C378.287 52.4802 377.769 52.3522 377.38 52.0962C377.121 51.9682 376.732 51.5842 376.343 50.8162Z" fill="#333333"/>
<path d="M383.343 44.5442V43.6482H388.269V44.5442H386.325V52.4802H385.417V44.4162H383.343V44.5442Z" fill="#333333"/>
<path d="M390.214 43.6482H392.029C393.066 43.6482 393.714 43.6482 394.103 43.7762C394.621 43.9042 395.01 44.1602 395.399 44.5442C395.788 44.9282 395.918 45.4402 395.918 45.9522C395.918 46.4642 395.788 46.8482 395.529 47.2322C395.27 47.6162 395.01 47.8722 394.492 48.0002C394.103 48.1282 393.455 48.2562 392.677 48.2562L395.918 52.3522H394.751L391.51 48.2562H390.992V52.4802H390.214V43.6482ZM391.121 44.5442V47.6162H392.677C393.325 47.6162 393.714 47.6162 393.973 47.4882C394.233 47.3602 394.492 47.2322 394.621 46.9762C394.751 46.7202 394.881 46.4642 394.881 46.2082C394.881 45.9522 394.751 45.6962 394.621 45.4402C394.492 45.1842 394.233 45.0562 393.973 44.9282C393.714 44.8002 393.325 44.8002 392.677 44.8002H391.121V44.5442Z" fill="#333333"/>
<path d="M402.14 43.6482L406.288 52.4802H405.381L403.955 49.5362H400.066L398.64 52.4802H397.603L401.881 43.6482H402.14ZM402.011 45.5682L400.455 48.7682H403.566L402.011 45.5682Z" fill="#333333"/>
<path d="M407.584 44.5442V43.6482H412.511V44.5442H410.566V52.4802H409.659V44.4162H407.584V44.5442Z" fill="#333333"/>
<path d="M414.326 43.6482H415.233V52.4802H414.326V43.6482Z" fill="#333333"/>
<path d="M422.233 43.3921C423.659 43.3921 424.696 43.9041 425.603 44.8001C426.511 45.6961 427.029 46.8481 427.029 48.1281C427.029 49.4081 426.511 50.5601 425.603 51.4561C424.696 52.3521 423.529 52.8641 422.233 52.8641C420.937 52.8641 419.77 52.3521 418.863 51.4561C417.955 50.5601 417.437 49.4081 417.437 48.1281C417.437 47.2321 417.696 46.4641 418.085 45.6961C418.474 44.9281 419.122 44.4161 419.77 44.0321C420.418 43.6481 421.326 43.3921 422.233 43.3921ZM422.233 44.2881C421.585 44.2881 420.937 44.4161 420.288 44.8001C419.64 45.1841 419.251 45.5681 418.863 46.2081C418.474 46.8481 418.344 47.4881 418.344 48.1281C418.344 49.1521 418.733 50.0481 419.511 50.8161C420.288 51.5841 421.196 51.9681 422.233 51.9681C422.881 51.9681 423.529 51.8401 424.177 51.4561C424.826 51.0721 425.215 50.6881 425.603 50.0481C425.992 49.4081 426.122 48.7681 426.122 48.1281C426.122 47.3601 425.992 46.8481 425.603 46.2081C425.215 45.5681 424.826 45.1841 424.177 44.8001C423.529 44.4161 422.881 44.2881 422.233 44.2881Z" fill="#333333"/>
<path d="M429.493 52.4802V43.6482H429.752L435.715 50.4322V43.6482H436.623V52.4802H436.363L430.4 45.8242V52.4802H429.493Z" fill="#333333"/>
<path d="M440.123 50.8162L440.901 51.2002L439.604 53.5042L438.956 53.2482L440.123 50.8162Z" fill="#333333"/>
<path d="M447.382 52.4802L448.679 43.6482H448.808L452.438 50.9442L456.068 43.6482H456.197L457.494 52.4802H456.586L455.679 46.0802L452.438 52.4802H452.179L448.938 46.0802L448.03 52.4802H447.382Z" fill="#333333"/>
<path d="M459.827 43.6482H460.735V52.4802H459.827V43.6482Z" fill="#333333"/>
<path d="M463.457 52.4802V43.6482H463.716L469.679 50.4322V43.6482H470.586V52.4802H470.327L464.364 45.8242V52.4802H463.457Z" fill="#333333"/>
<path d="M473.309 43.6482H474.216V52.4802H473.309V43.6482Z" fill="#333333"/>
<path d="M476.031 50.8162L476.809 50.3042C477.328 51.3282 477.976 51.7122 478.624 51.7122C478.883 51.7122 479.272 51.5842 479.531 51.4562C479.791 51.3282 480.05 51.0722 480.18 50.9442C480.309 50.6882 480.439 50.4322 480.439 50.1762C480.439 49.9202 480.309 49.5362 480.18 49.2802C479.92 48.8962 479.402 48.3842 478.624 47.8722C477.846 47.3602 477.457 46.8482 477.198 46.7202C476.939 46.3362 476.679 45.8242 476.679 45.3122C476.679 44.9282 476.809 44.5442 476.939 44.2882C477.068 44.0322 477.328 43.7762 477.716 43.5202C478.105 43.2642 478.365 43.2642 478.883 43.2642C479.272 43.2642 479.661 43.3922 480.05 43.5202C480.439 43.7762 480.828 44.1602 481.217 44.6722L480.439 45.1842C480.05 44.8002 479.791 44.4162 479.531 44.2882C479.272 44.1602 479.013 44.0322 478.754 44.0322C478.365 44.0322 478.105 44.1602 477.846 44.4162C477.587 44.6722 477.457 44.9282 477.457 45.1842C477.457 45.4402 477.457 45.5682 477.587 45.6962C477.716 45.8242 477.846 46.0802 477.976 46.3362C478.105 46.4642 478.494 46.7202 479.142 47.2322C479.92 47.7442 480.439 48.2562 480.698 48.7682C480.957 49.1522 481.087 49.6642 481.087 50.0482C481.087 50.6882 480.828 51.2002 480.309 51.7122C479.791 52.2242 479.272 52.4802 478.494 52.4802C477.976 52.4802 477.457 52.3522 477.068 52.0962C476.809 51.9682 476.42 51.5842 476.031 50.8162Z" fill="#333333"/>
<path d="M482.902 44.5442V43.6482H487.828V44.5442H485.883V52.4802H484.976V44.4162H482.902V44.5442Z" fill="#333333"/>
<path d="M489.902 43.6482H491.717C492.754 43.6482 493.402 43.6482 493.791 43.7762C494.31 43.9042 494.699 44.1602 495.087 44.5442C495.476 44.9282 495.606 45.4402 495.606 45.9522C495.606 46.4642 495.476 46.8482 495.217 47.2322C494.958 47.6162 494.699 47.8722 494.18 48.0002C493.791 48.1282 493.143 48.2562 492.365 48.2562L495.606 52.3522H494.439L491.198 48.2562H490.68V52.4802H489.772V43.6482H489.902ZM490.81 44.5442V47.6162H492.365C493.013 47.6162 493.402 47.6162 493.661 47.4882C493.921 47.3602 494.18 47.2322 494.31 46.9762C494.439 46.7202 494.569 46.4642 494.569 46.2082C494.569 45.9522 494.439 45.6962 494.31 45.4402C494.18 45.1842 493.921 45.0562 493.661 44.9282C493.402 44.8002 493.013 44.8002 492.365 44.8002H490.81V44.5442Z" fill="#333333"/>
<path d="M497.421 43.6482H498.458L500.791 47.3602L502.995 43.6482H504.032L501.18 48.2562V52.4802H500.273V48.2562L497.421 43.6482Z" fill="#333333"/>
<path d="M514.662 43.3921C516.088 43.3921 517.125 43.9041 518.033 44.8001C518.94 45.6961 519.459 46.8481 519.459 48.1281C519.459 49.4081 518.94 50.5601 518.033 51.4561C517.125 52.3521 515.959 52.8641 514.662 52.8641C513.366 52.8641 512.199 52.3521 511.292 51.4561C510.384 50.5601 509.866 49.4081 509.866 48.1281C509.866 47.2321 510.125 46.4641 510.514 45.6961C510.903 44.9281 511.551 44.4161 512.199 44.0321C512.847 43.6481 513.884 43.3921 514.662 43.3921ZM514.662 44.2881C514.014 44.2881 513.366 44.4161 512.718 44.8001C512.07 45.1841 511.681 45.5681 511.292 46.2081C510.903 46.8481 510.773 47.4881 510.773 48.1281C510.773 49.1521 511.162 50.0481 511.94 50.8161C512.718 51.5841 513.625 51.9681 514.662 51.9681C515.31 51.9681 515.959 51.8401 516.607 51.4561C517.255 51.0721 517.644 50.6881 518.033 50.0481C518.422 49.4081 518.551 48.7681 518.551 48.1281C518.551 47.3601 518.422 46.8481 518.033 46.2081C517.644 45.5681 517.255 45.1841 516.607 44.8001C516.088 44.4161 515.44 44.2881 514.662 44.2881Z" fill="#333333"/>
<path d="M521.921 43.6482H526.459V44.5442H522.829V47.3602H526.459V48.2562H522.829V52.4802H521.921V43.6482Z" fill="#333333"/>
<path d="M532.811 43.6482H533.718V51.7122H537.218V52.4802H532.811V43.6482Z" fill="#333333"/>
<path d="M543.052 43.6482L547.2 52.4802H546.293L544.867 49.5362H540.978L539.552 52.4802H538.515L542.793 43.6482H543.052ZM542.922 45.5682L541.367 48.7682H544.478L542.922 45.5682Z" fill="#333333"/>
<path d="M549.274 43.6482H551.089C551.737 43.6482 552.386 43.7762 552.775 43.9042C553.163 44.0322 553.423 44.2882 553.682 44.6722C553.941 45.0562 554.071 45.4402 554.071 45.8242C554.071 46.2082 553.941 46.5922 553.812 46.8482C553.682 47.1042 553.293 47.4882 552.904 47.6162C553.423 47.7442 553.682 48.0002 553.941 48.1282C554.2 48.3842 554.33 48.6402 554.589 48.8962C554.849 49.1522 554.849 49.5362 554.849 49.9202C554.849 50.6882 554.589 51.2002 554.071 51.7122C553.552 52.2242 552.774 52.4802 551.997 52.4802H549.534V43.6482H549.274ZM550.182 44.5442V47.3602H550.7C551.349 47.3602 551.737 47.3602 552.126 47.2322C552.386 47.1042 552.645 46.9762 552.775 46.7202C552.904 46.4642 553.034 46.2082 553.034 45.9522C553.034 45.5682 552.904 45.1842 552.645 45.0562C552.386 44.9282 551.867 44.6722 551.219 44.6722H550.182V44.5442ZM550.182 48.2562V51.7122H551.349C551.997 51.7122 552.515 51.7122 552.775 51.5842C553.034 51.4562 553.293 51.2002 553.552 50.9442C553.682 50.6882 553.812 50.4322 553.812 50.0482C553.812 49.6642 553.682 49.2802 553.423 49.0242C553.163 48.7682 552.775 48.5122 552.386 48.3842C552.126 48.2562 551.608 48.2562 550.83 48.2562H550.182Z" fill="#333333"/>
<path d="M561.46 43.3921C562.886 43.3921 563.923 43.9041 564.831 44.8001C565.738 45.6961 566.256 46.8481 566.256 48.1281C566.256 49.4081 565.738 50.5601 564.831 51.4561C563.923 52.3521 562.756 52.8641 561.46 52.8641C560.164 52.8641 558.997 52.3521 558.09 51.4561C557.182 50.5601 556.664 49.4081 556.664 48.1281C556.664 47.2321 556.923 46.4641 557.312 45.6961C557.701 44.9281 558.349 44.4161 558.997 44.0321C559.645 43.6481 560.553 43.3921 561.46 43.3921ZM561.46 44.2881C560.812 44.2881 560.164 44.4161 559.516 44.8001C558.867 45.1841 558.478 45.5681 558.09 46.2081C557.701 46.8481 557.571 47.4881 557.571 48.1281C557.571 49.1521 557.96 50.0481 558.738 50.8161C559.516 51.5841 560.423 51.9681 561.46 51.9681C562.108 51.9681 562.756 51.8401 563.405 51.4561C564.053 51.0721 564.442 50.6881 564.831 50.0481C565.219 49.4081 565.349 48.7681 565.349 48.1281C565.349 47.3601 565.219 46.8481 564.831 46.2081C564.442 45.5681 564.053 45.1841 563.405 44.8001C562.756 44.4161 562.108 44.2881 561.46 44.2881Z" fill="#333333"/>
<g filter="url(#filter2_d_119_5662)">
<path d="M326 18.28C325.64 18.952 325.232 19.624 324.872 20.248H316.616C317.312 19.6 317.912 18.952 318.488 18.28H326ZM333.872 22.84V20.248H328.04C328.808 19.168 329.576 17.992 330.152 17.104L328.088 15.616L327.632 15.784H320.288C320.624 15.232 320.936 14.68 321.224 14.152L318.128 13.528C316.952 15.856 314.816 18.52 311.624 20.464C312.224 20.92 313.136 22.024 313.544 22.744C314.024 22.408 314.504 22.048 314.96 21.688V24.424C314.96 27.376 314.648 31.336 311.648 34.12C312.272 34.456 313.448 35.488 313.832 36.04C317.144 32.968 317.792 27.952 317.792 24.472V22.84H333.872ZM324.32 33.16C322.616 33.16 322.328 32.992 322.328 31.984V26.92H327.752C327.632 28.168 327.488 28.768 327.296 28.984C327.08 29.176 326.888 29.224 326.504 29.224C326.096 29.224 325.16 29.2 324.152 29.104C324.56 29.776 324.848 30.784 324.896 31.552C326.144 31.576 327.272 31.576 327.92 31.504C328.64 31.408 329.216 31.216 329.672 30.712C330.224 30.088 330.464 28.6 330.632 25.456C330.656 25.12 330.656 24.472 330.656 24.472H319.52V32.032C319.52 34.96 320.624 35.752 324.104 35.752H329.72C332.84 35.752 333.704 34.72 334.088 30.952C333.32 30.808 332.096 30.352 331.472 29.896C331.28 32.704 331.064 33.16 329.552 33.16H324.32ZM347.72 19.048C348.536 18.376 349.304 17.656 350.024 16.888C350.864 17.632 351.824 18.376 352.856 19.048H347.72ZM346.712 21.184H353.768V19.624C354.896 20.296 356.048 20.92 357.176 21.4C357.368 20.632 357.848 19.408 358.256 18.688C355.904 17.92 353.288 16.504 351.512 15.064C351.68 14.824 351.824 14.56 351.968 14.32L349.232 13.36C347.888 15.544 345.368 17.776 342.632 19.192C342.968 17.944 343.328 16.672 343.64 15.544L341.864 14.512L341.48 14.608H336.608V36.016H338.984V17.152H340.736C340.4 18.736 339.968 20.704 339.584 22.144C340.736 23.8 340.928 25.384 340.928 26.488C340.928 27.208 340.832 27.736 340.568 27.952C340.424 28.096 340.208 28.144 340.016 28.144C339.752 28.168 339.488 28.168 339.128 28.12C339.488 28.84 339.68 29.896 339.704 30.592C340.184 30.592 340.712 30.592 341.096 30.52C341.6 30.448 342.032 30.28 342.368 29.992C343.064 29.44 343.328 28.408 343.328 26.824C343.328 25.456 343.088 23.728 341.864 21.88C342.104 21.136 342.32 20.272 342.584 19.384C343.16 19.888 343.976 20.752 344.336 21.256C345.152 20.824 345.968 20.32 346.712 19.792V21.184ZM352.832 24.304H354.512V26.512H352.832V24.304ZM350.768 28.408H356.72V22.384H350.768V28.408ZM345.944 24.304H347.552V26.512H345.944V24.304ZM343.904 28.408H349.688V22.384H343.904V28.408ZM345.776 28.672C345.056 31.096 343.52 33.112 341.408 34.36C341.96 34.744 342.872 35.68 343.256 36.16C344.6 35.248 345.752 34.048 346.688 32.584C347.432 33.136 348.176 33.76 348.584 34.24L350.024 32.344C349.52 31.84 348.584 31.168 347.744 30.616C347.936 30.16 348.128 29.68 348.272 29.2L345.776 28.672ZM352.4 28.648C351.944 31.096 350.792 33.112 348.92 34.336C349.472 34.696 350.384 35.656 350.744 36.136C351.8 35.368 352.688 34.36 353.408 33.16C354.608 34.048 355.784 35.032 356.456 35.752L358.136 33.832C357.32 33.016 355.76 31.888 354.416 30.952C354.656 30.328 354.824 29.68 354.968 29.008L352.4 28.648ZM365.048 13.768C363.848 17.176 361.76 20.584 359.576 22.744C360.08 23.464 360.896 25.096 361.16 25.792C361.64 25.264 362.144 24.664 362.648 24.064V36.064H365.528V19.624C366.416 18.016 367.208 16.312 367.832 14.632L365.048 13.768ZM382.256 20.296V17.584H372.944C373.4 16.6 373.784 15.616 374.12 14.608L371.36 13.912C370.28 17.344 368.384 20.8 366.272 22.96C366.872 23.416 368 24.424 368.456 24.952C369.536 23.704 370.64 22.072 371.6 20.296H372.512V36.088H375.44V30.76H381.968V28.12H375.44V25.408H381.656V22.816H375.44V20.296H382.256ZM390.968 31.432C389.504 32.32 386.72 33.136 384.32 33.472C384.896 34 385.64 34.936 386 35.536C388.472 34.96 391.352 33.712 392.984 32.344L390.968 31.432ZM397.424 32.632C399.44 33.472 402.248 34.744 403.64 35.536L405.656 33.976C404.12 33.208 401.288 32.008 399.344 31.288L397.424 32.632ZM398.432 19.816C398.096 20.392 397.592 21.112 397.208 21.664L398.072 21.928H391.52L392.816 21.616C392.624 21.112 392.24 20.416 391.856 19.816H398.432ZM396.392 28.288V27.232H403.592V25.168H396.392V24.088H404.72V21.928H400.088C400.52 21.496 401.024 20.968 401.552 20.392L399.296 19.816H405.632V17.584H402.536C403.136 16.744 403.784 15.664 404.456 14.56L401.456 13.864C401.12 14.896 400.472 16.36 399.92 17.32L400.784 17.584H398.648V13.672H395.96V17.584H394.16V13.672H391.52V17.584H389.312L390.464 17.152C390.152 16.24 389.36 14.8 388.64 13.792L386.192 14.608C386.744 15.52 387.368 16.672 387.728 17.584H384.464V19.816H390.584L388.976 20.176C389.288 20.704 389.648 21.376 389.864 21.928H385.448V24.088H393.56V25.168H386.648V27.232H393.56V28.288H384.416V30.64H393.56V36.112H396.392V30.64H405.704V28.288H396.392ZM411.848 25.624C412.376 25.024 412.904 24.376 413.408 23.728C413.552 24.232 413.72 24.808 413.84 25.384L411.848 25.624ZM416.672 27.928C416.504 26.656 415.952 24.544 415.4 22.936L413.624 23.44C414.824 21.856 415.904 20.176 416.816 18.496L414.392 17.008C413.912 18.088 413.312 19.192 412.688 20.2L411.08 20.32C412.232 18.64 413.36 16.6 414.176 14.68L411.584 13.6C410.816 16.12 409.4 18.736 408.92 19.408C408.44 20.104 408.056 20.56 407.576 20.68C407.888 21.376 408.32 22.624 408.464 23.152C408.824 22.984 409.352 22.84 411.104 22.624C410.48 23.536 409.928 24.184 409.664 24.52C408.896 25.408 408.368 25.936 407.72 26.104C408.056 26.824 408.512 28.144 408.656 28.672C409.184 28.432 409.976 28.192 414.32 27.568C414.392 27.952 414.44 28.312 414.488 28.624L416.672 27.928ZM408.704 29.44C408.56 31.456 408.272 33.664 407.696 35.104C408.272 35.272 409.352 35.608 409.808 35.848C410.312 34.336 410.696 31.984 410.888 29.776L408.704 29.44ZM411.272 29.752C411.488 31.36 411.68 33.472 411.68 34.84L413.792 34.48C413.744 33.064 413.528 31 413.264 29.392L411.272 29.752ZM413.648 29.296C414.008 30.328 414.416 31.768 414.56 32.656L416.504 32.008C416.312 31.096 415.904 29.752 415.52 28.696L413.648 29.296ZM420.512 26.344L420.08 26.416H416.888V28.72H419.048C418.304 30.52 417.032 32.128 415.544 32.944C416.072 33.424 416.816 34.36 417.152 34.936C419.648 33.4 421.424 30.64 422.216 26.92L420.512 26.344ZM420.392 21.544H426.488V22.816H420.392V21.544ZM420.392 18.352H426.488V19.552H420.392V18.352ZM427.904 25.312C427.376 26.008 426.56 26.896 425.768 27.64C425.504 27.04 425.264 26.392 425.048 25.72V24.952H429.248V16.216H424.112C424.448 15.592 424.832 14.944 425.192 14.248L421.928 13.672C421.76 14.416 421.472 15.352 421.16 16.216H417.752V24.952H422.336V33.208C422.336 33.472 422.24 33.544 421.928 33.544C421.64 33.568 420.656 33.568 419.768 33.52C420.104 34.264 420.44 35.368 420.536 36.136C422.072 36.136 423.2 36.088 423.992 35.68C424.832 35.224 425.048 34.528 425.048 33.256V31.192C425.96 32.848 427.112 34.24 428.504 35.2C428.912 34.48 429.776 33.448 430.376 32.92C428.984 32.2 427.808 31 426.872 29.608C427.856 28.888 428.936 27.952 430.04 27.088L427.904 25.312ZM443.768 32.032V23.728H452.24V20.824H443.768V13.96H440.696V32.032H432.104V34.912H453.92V32.032H443.768ZM469.112 21.736V23.032H466.352V21.736H469.112ZM474.488 23.032H471.656V21.736H474.488V23.032ZM471.656 26.368V25.024H474.488V26.368H471.656ZM466.352 26.368V25.024H469.112V26.368H466.352ZM466.352 28.432H469.112V31.936H471.656V28.432H474.488V29.536C474.488 29.776 474.416 29.872 474.128 29.896C473.888 29.896 473.072 29.896 472.304 29.872C472.616 30.496 472.904 31.408 473.024 32.104C474.44 32.104 475.496 32.104 476.24 31.696C477.008 31.312 477.224 30.736 477.224 29.56V19.672H474.32C473.912 19.432 473.408 19.192 472.88 18.928C474.44 17.992 475.952 16.816 477.152 15.664L475.472 14.32L474.896 14.464H463.88V16.624H472.4C471.8 17.08 471.152 17.512 470.48 17.896C469.52 17.464 468.512 17.08 467.672 16.768L465.824 18.28C466.808 18.688 467.936 19.168 469.04 19.672H463.664V32.032H466.352V28.432ZM461.12 17.656C460.784 16.576 460.16 14.968 459.728 13.672L457.208 14.44C457.616 15.736 458.24 17.488 458.504 18.568L461.12 17.656ZM461.336 24.448L460.904 24.544H459.944C460.496 22.864 461.072 20.944 461.576 19.264H455.96V21.808H458.12C457.592 23.68 456.944 25.6 456.392 27.016H459.416C459.056 28.48 458.576 29.992 458.024 31.192C457.232 31.672 456.344 32.464 455.504 33.472L457.424 36.184C458 34.816 458.864 33.184 459.416 33.184C459.92 33.184 460.76 33.976 461.768 34.528C463.496 35.536 465.512 35.8 468.704 35.8C471.512 35.8 475.736 35.632 477.728 35.512C477.752 34.744 478.232 33.352 478.544 32.584C475.904 32.968 471.608 33.208 468.848 33.208C466.04 33.208 463.784 33.064 462.152 32.08C461.504 31.696 461.048 31.36 460.664 31.12C461.48 29.32 462.128 27.064 462.536 24.88L461.336 24.448ZM483.416 25L484.496 24.64C484.376 23.992 483.968 23.032 483.56 22.216H487.232C486.944 23.08 486.512 24.112 486.08 25H483.416ZM486.752 18.16H490.04V15.808H486.752V13.744H484.112V15.808H480.632V18.16H484.112V19.816H479.984V22.216H482.744L481.4 22.624C481.712 23.368 482.072 24.28 482.24 25H480.536V27.4H484.112V29.32H479.96V31.72H484.112V35.992H486.752V31.72H490.592V29.32H486.752V27.4H490.112V25H488.456C488.84 24.232 489.272 23.416 489.68 22.576L488.24 22.216H490.592V19.816H486.752V18.16ZM493.832 26.248C494.432 28.048 495.152 29.728 496.064 31.192C495.416 32.104 494.696 32.92 493.832 33.616V26.248ZM498.728 25.168C498.416 26.416 498.008 27.64 497.48 28.744C496.808 27.64 496.256 26.416 495.824 25.168H498.728ZM500 22.792L499.544 22.912H493.832V17.176H498.512V19.144C498.512 19.408 498.392 19.48 498.032 19.504C497.672 19.504 496.352 19.504 495.176 19.456C495.512 20.152 495.872 21.136 495.992 21.904C497.744 21.904 499.04 21.88 499.952 21.496C500.888 21.112 501.152 20.416 501.152 19.192V14.68H491.24V36.04H493.832V34.84C494.264 35.272 494.696 35.728 494.96 36.136C495.992 35.368 496.904 34.48 497.696 33.424C498.584 34.432 499.568 35.272 500.648 35.92C501.08 35.224 501.92 34.192 502.52 33.664C501.296 33.04 500.192 32.176 499.232 31.096C500.432 28.864 501.272 26.248 501.728 23.416L500 22.792ZM508.856 29.152C507.704 30.664 505.784 32.296 503.984 33.28C504.704 33.712 505.88 34.648 506.48 35.152C508.208 33.976 510.344 32.008 511.76 30.184L508.856 29.152ZM521.768 27.856C522.272 28.48 522.68 29.056 522.992 29.536L525.416 28.072C524.408 26.608 522.44 24.376 520.736 22.672L518.36 23.872C518.864 24.4 519.392 24.976 519.896 25.576L513.128 26.032C515.912 24.664 518.696 23.008 521.24 21.088L519.128 19.192C518.312 19.864 517.472 20.488 516.584 21.112L512.432 21.328C513.848 20.512 515.216 19.6 516.512 18.64L515.216 17.8C517.736 17.248 520.112 16.576 522.104 15.784L519.992 13.528C516.32 15.088 510.272 16.336 504.752 17.08C505.064 17.68 505.448 18.784 505.544 19.504C507.752 19.216 510.08 18.856 512.384 18.4C510.8 19.6 509.192 20.512 508.544 20.824C507.728 21.256 507.176 21.52 506.528 21.616C506.816 22.36 507.224 23.704 507.368 24.256C507.92 24.016 508.736 23.896 512.576 23.632C510.92 24.616 509.528 25.312 508.784 25.624C507.32 26.344 506.408 26.704 505.448 26.848C505.76 27.544 506.168 28.912 506.288 29.416C507.128 29.104 508.208 28.936 513.656 28.504V32.944C513.656 33.232 513.536 33.304 513.128 33.328C512.72 33.328 511.256 33.328 510.032 33.28C510.44 34.024 510.92 35.224 511.064 36.064C512.84 36.064 514.208 36.04 515.216 35.608C516.272 35.152 516.56 34.432 516.56 33.016V28.264L521.768 27.856ZM517.832 30.352C519.68 31.696 521.984 33.64 523.016 34.912L525.536 33.232C524.384 31.912 522.008 30.064 520.16 28.84L517.832 30.352ZM537.008 27.544C536.792 26.248 536.072 24.28 535.328 22.744L533.408 23.488C533.648 24.016 533.888 24.64 534.104 25.264L531.704 25.648C533.528 23.488 535.328 20.872 536.696 18.28L534.344 16.816C533.816 18.016 533.144 19.288 532.496 20.416L530.912 20.536C532.16 18.76 533.36 16.6 534.248 14.56L531.704 13.456C530.84 16 529.4 18.664 528.896 19.336C528.416 20.056 528.008 20.512 527.552 20.632C527.84 21.352 528.272 22.6 528.416 23.152C528.752 22.984 529.28 22.864 531.056 22.648C530.432 23.56 529.904 24.208 529.592 24.544C528.872 25.456 528.368 25.96 527.72 26.128C528.056 26.848 528.488 28.144 528.608 28.672C529.136 28.408 529.928 28.144 534.728 27.304C534.824 27.712 534.896 28.048 534.944 28.384L537.008 27.544ZM528.488 29.44C528.344 31.36 528.08 33.496 527.528 34.888C528.104 35.032 529.184 35.368 529.64 35.656C530.144 34.216 530.528 31.936 530.696 29.8L528.488 29.44ZM531.2 29.752C531.44 31.312 531.68 33.352 531.728 34.696L533.84 34.168C533.768 32.8 533.48 30.808 533.192 29.224L531.2 29.752ZM533.816 29.176C534.248 30.424 534.728 32.08 534.92 33.16L536.912 32.416C536.672 31.384 536.168 29.776 535.736 28.528L533.816 29.176ZM546.32 33.136C545.912 33.136 545.864 33.04 545.864 32.296V24.856L546.8 24.736C547.112 25.432 547.376 26.056 547.544 26.608L550.04 25.456C549.464 23.8 548.024 21.352 546.8 19.504L544.496 20.536C544.832 21.136 545.216 21.76 545.6 22.408L540.536 22.888C541.304 21.736 542.096 20.464 542.816 19.096H549.8V16.432H544.16C544.472 15.736 544.76 15.064 545.048 14.368L541.952 13.552C541.64 14.536 541.256 15.496 540.872 16.432H536.792V19.096H539.648C539.048 20.296 538.496 21.208 538.208 21.592C537.608 22.576 537.128 23.152 536.552 23.32C536.888 24.088 537.368 25.504 537.512 26.056C537.848 25.912 538.232 25.792 539.144 25.672C539 29.68 538.52 32.32 535.352 33.952C535.952 34.432 536.768 35.488 537.08 36.184C540.992 34.048 541.64 30.448 541.832 25.312L543.2 25.144V32.296C543.2 34.816 543.68 35.656 545.864 35.656H547.592C549.392 35.656 550.04 34.624 550.28 30.928C549.56 30.76 548.432 30.304 547.88 29.872C547.808 32.68 547.736 33.136 547.304 33.136H546.32Z" fill="url(#paint1_linear_119_5662)"/>
</g>
</g>
<defs>
<filter id="filter0_d_119_5662" x="-6" y="-6" width="76.8169" height="76" filterUnits="userSpaceOnUse" color-interpolation-filters="sRGB">
<feFlood flood-opacity="0" result="BackgroundImageFix"/>
<feColorMatrix in="SourceAlpha" type="matrix" values="0 0 0 0 0 0 0 0 0 0 0 0 0 0 0 0 0 0 127 0" result="hardAlpha"/>
<feOffset/>
<feGaussianBlur stdDeviation="3"/>
<feComposite in2="hardAlpha" operator="out"/>
<feColorMatrix type="matrix" values="0 0 0 0 1 0 0 0 0 1 0 0 0 0 1 0 0 0 1 0"/>
<feBlend mode="normal" in2="BackgroundImageFix" result="effect1_dropShadow_119_5662"/>
<feBlend mode="normal" in="SourceGraphic" in2="effect1_dropShadow_119_5662" result="shape"/>
</filter>
<filter id="filter1_d_119_5662" x="74.3398" y="8.07397" width="237.66" height="33.1001" filterUnits="userSpaceOnUse" color-interpolation-filters="sRGB">
<feFlood flood-opacity="0" result="BackgroundImageFix"/>
<feColorMatrix in="SourceAlpha" type="matrix" values="0 0 0 0 0 0 0 0 0 0 0 0 0 0 0 0 0 0 127 0" result="hardAlpha"/>
<feOffset/>
<feGaussianBlur stdDeviation="3"/>
<feComposite in2="hardAlpha" operator="out"/>
<feColorMatrix type="matrix" values="0 0 0 0 1 0 0 0 0 1 0 0 0 0 1 0 0 0 1 0"/>
<feBlend mode="normal" in2="BackgroundImageFix" result="effect1_dropShadow_119_5662"/>
<feBlend mode="normal" in="SourceGraphic" in2="effect1_dropShadow_119_5662" result="shape"/>
</filter>
<filter id="filter2_d_119_5662" x="305.624" y="7.36011" width="250.656" height="34.824" filterUnits="userSpaceOnUse" color-interpolation-filters="sRGB">
<feFlood flood-opacity="0" result="BackgroundImageFix"/>
<feColorMatrix in="SourceAlpha" type="matrix" values="0 0 0 0 0 0 0 0 0 0 0 0 0 0 0 0 0 0 127 0" result="hardAlpha"/>
<feOffset/>
<feGaussianBlur stdDeviation="3"/>
<feComposite in2="hardAlpha" operator="out"/>
<feColorMatrix type="matrix" values="0 0 0 0 1 0 0 0 0 1 0 0 0 0 1 0 0 0 1 0"/>
<feBlend mode="normal" in2="BackgroundImageFix" result="effect1_dropShadow_119_5662"/>
<feBlend mode="normal" in="SourceGraphic" in2="effect1_dropShadow_119_5662" result="shape"/>
</filter>
<radialGradient id="paint0_radial_119_5662" cx="0" cy="0" r="1" gradientUnits="userSpaceOnUse" gradientTransform="translate(32.4294 31.9999) scale(32.4272 32.0185)">
<stop stop-color="white"/>
<stop offset="0.3365" stop-color="#FDFEFE"/>
<stop offset="0.4961" stop-color="#F5F9FC"/>
<stop offset="0.6184" stop-color="#E8F1F9"/>
<stop offset="0.7218" stop-color="#D6E5F4"/>
<stop offset="0.8131" stop-color="#BED6EE"/>
<stop offset="0.896" stop-color="#A1C4E6"/>
<stop offset="0.9709" stop-color="#7EAFDD"/>
<stop offset="1" stop-color="#6FA5D9"/>
</radialGradient>
<linearGradient id="paint1_linear_119_5662" x1="445.5" y1="9" x2="445.5" y2="39" gradientUnits="userSpaceOnUse">
<stop stop-color="#637FE3"/>
<stop offset="0.286458" stop-color="#1E50D1"/>
<stop offset="1" stop-color="#0D408D"/>
</linearGradient>
<clipPath id="clip0_119_5662">
<rect width="563" height="64" fill="white"/>
</clipPath>
</defs>
</svg>
