<svg width="443" height="56" viewBox="0 0 443 56" fill="none" xmlns="http://www.w3.org/2000/svg">
<g clip-path="url(#clip0_115_5016)">
<path d="M56.1916 28C56.1916 43.456 43.6046 56 28.0958 56C12.5869 56 0 43.456 0 28C0 12.544 12.5869 0 28.0958 0C43.6046 0 56.1916 12.544 56.1916 28Z" fill="url(#paint0_radial_115_5016)"/>
<path d="M21.9146 36.176C20.6784 36.176 19.6669 36.064 18.8802 35.84C18.0935 35.616 17.3069 35.28 16.6326 34.944L17.9812 31.248H18.3183C18.8802 31.92 19.5545 32.48 20.3412 32.816C21.1279 33.152 22.027 33.376 22.926 33.376C23.1508 33.376 23.4879 33.376 23.8251 33.264C24.1622 33.264 24.4994 33.152 24.8365 33.04C25.1737 32.928 25.3984 32.704 25.7356 32.592C25.9604 32.368 26.1851 32.144 26.2975 31.696C26.4099 31.248 26.4099 31.024 26.1851 30.688C25.9604 30.464 25.6232 30.24 25.2861 30.128C24.8365 30.016 24.2746 29.904 23.7127 29.68C23.1508 29.568 22.5889 29.344 22.1393 29.232C21.0155 28.784 20.4536 28.224 20.1164 27.44C19.8917 26.768 19.8917 25.76 20.3412 24.752C20.9031 23.296 21.9146 22.064 23.4879 21.168C25.0613 20.272 26.747 19.824 28.6576 19.824C29.5566 19.824 30.4557 19.936 31.3548 20.16C32.2538 20.384 32.9281 20.608 33.6024 20.944L32.2538 24.528H31.9167C31.4671 24.08 30.9052 23.632 30.2309 23.296C29.5566 22.96 28.6576 22.736 27.7585 22.736C27.4213 22.736 27.0842 22.736 26.747 22.848C26.4099 22.848 26.0727 22.96 25.7356 23.184C25.3984 23.296 25.1737 23.52 24.9489 23.744C24.7242 23.968 24.4994 24.192 24.387 24.528C24.2746 24.976 24.2746 25.2 24.4994 25.536C24.7242 25.76 25.1737 25.984 25.9604 26.208C26.4099 26.32 26.9718 26.432 27.4213 26.544C27.8709 26.656 28.3204 26.768 28.8823 26.992C29.8938 27.44 30.4557 27.888 30.7928 28.56C31.13 29.232 31.0176 30.128 30.6805 31.248C30.1185 32.816 28.9947 34.048 27.4213 35.056C25.848 35.728 24.0499 36.176 21.9146 36.176Z" fill="#004097"/>
<path d="M39.1091 36.2879L44.6159 20.1599H48.9988L54.5056 36.2879H50.3474L49.336 33.0399H44.2788L43.2673 36.2879H39.1091ZM48.4369 30.0159L46.7512 24.7519L45.0654 30.0159H48.4369Z" fill="#004097"/>
<path d="M41.5815 29.1199H36.0747L33.4899 36.2879H29.4441L35.288 20.1599H39.3338L37.1985 26.0959H42.7053L41.5815 29.1199Z" fill="#004097"/>
<path d="M7.19243 32.704C5.73145 32.592 5.05716 31.136 5.61907 29.568C6.29337 28 7.97912 26.88 9.55248 27.104C11.0135 27.216 11.6878 28.672 11.1258 30.24C10.4515 31.808 8.7658 32.928 7.19243 32.704Z" fill="#00913A"/>
<path d="M5.95616 21.3921C9.10289 19.2641 12.6991 18.7041 15.3963 19.7121C11.5753 19.9361 7.52953 22.6241 5.7314 26.4321C5.16948 27.5521 4.94472 28.7841 4.83233 29.7921C4.83233 29.7921 4.83233 29.7921 4.83233 29.9041C3.0342 26.7681 5.28186 22.6241 5.95616 21.3921Z" fill="#004097"/>
<path d="M15.8459 30.016L16.183 29.904C16.183 29.792 16.2954 29.68 16.2954 29.68C16.0706 29.904 15.9583 30.016 15.8459 30.016ZM5.16949 31.136C4.15804 30.24 3.59612 29.008 3.59612 27.664C3.59612 27.44 3.59612 27.328 3.59612 27.104C3.59612 26.992 3.59612 26.88 3.59612 26.768C3.59612 26.656 3.59612 26.544 3.59612 26.432C3.59612 26.32 3.59612 26.208 3.59612 26.208C3.59612 26.096 3.59612 25.984 3.59612 25.984C3.59612 25.872 3.59612 25.76 3.59612 25.76C3.59612 25.648 3.59612 25.536 3.70851 25.536C3.70851 25.536 3.70851 25.536 3.70851 25.424C3.70851 25.312 3.70851 25.312 3.82089 25.2C3.82089 25.2 3.82089 25.2 3.82089 25.088C3.82089 24.976 3.82089 24.976 3.93327 24.864V24.752C3.93327 24.64 3.93327 24.64 4.04566 24.528V24.416C4.04566 24.304 4.04566 24.304 4.15804 24.192V24.08C4.15804 23.968 4.15804 23.968 4.27042 23.856C4.27042 23.856 4.27042 23.744 4.38281 23.744C4.49519 23.52 4.49519 23.408 4.49519 23.408C4.49519 23.408 4.49519 23.296 4.60757 23.296C4.60757 23.184 4.60757 23.184 4.71995 23.072C4.71995 23.072 4.71996 22.96 4.83234 22.96C4.83234 22.96 4.83234 22.848 4.94472 22.848C4.94472 22.736 5.0571 22.736 5.0571 22.624C5.0571 22.624 5.0571 22.512 5.16949 22.512C5.28187 22.4 5.28187 22.288 5.39425 22.176C4.94472 22.512 4.60757 22.848 4.15804 23.184C-0.000135151 27.104 -0.786817 32.48 2.24753 35.168C2.35991 35.28 2.47229 35.392 2.58468 35.504C2.58468 35.504 3.25897 36.064 4.71995 36.512C6.06855 36.848 7.64192 36.848 9.21528 36.4C10.002 36.176 10.7886 35.952 11.4629 35.616C11.8001 35.392 12.2496 35.168 12.5868 34.832C14.6097 32.48 15.1716 31.024 15.284 30.352C11.8001 32.816 7.52953 33.264 5.16949 31.136Z" fill="#00913A"/>
<path d="M15.3962 20.1601C13.7105 20.1601 12.1371 20.8321 11.0133 21.3921C10.5638 21.6161 10.0019 21.8401 9.55232 22.1761C9.43994 22.1761 9.43994 22.2881 9.43994 22.2881C10.1142 22.1761 10.7885 22.2881 11.4628 22.4001C15.621 23.0721 17.3068 27.2161 15.2839 31.5841C14.7219 32.8161 13.9353 33.8241 13.0362 34.8321C13.261 34.7201 13.4857 34.6081 13.5981 34.4961C13.5981 34.4961 13.5981 34.4961 13.4857 34.6081C15.5086 33.3761 17.1944 31.2481 18.2058 28.8961C18.4306 28.4481 18.543 28.0001 18.6554 27.6641C19.6668 23.5201 18.4306 20.0481 15.3962 20.1601Z" fill="#EC6C00"/>
<path d="M85.6337 20.3703C85.6337 21.6023 85.4089 22.6103 85.1842 23.5063C86.308 24.1783 87.8814 25.1863 88.7804 25.8583L87.8814 26.6423H88.5557V30.0023H86.8699V28.0983H75.0697V30.0023H73.4963V26.6423H73.6087C73.4963 26.3063 73.1592 25.8583 72.822 25.5223C75.9687 24.7383 76.4183 23.2823 76.5307 20.2583H77.9916C77.9916 21.6023 77.8793 22.6103 77.5421 23.5063C78.4412 24.0663 79.565 24.7383 80.1269 25.2983L79.0031 26.3063C78.5536 25.8583 77.6545 25.2983 76.8678 24.7383C76.3059 25.6343 75.4068 26.1943 73.9459 26.6423H87.2071C86.4204 26.0823 85.2966 25.2983 84.2851 24.6263C83.7232 25.5223 82.7117 26.1943 81.1384 26.6423C81.026 26.3063 80.5765 25.7463 80.2393 25.4103C83.2736 24.6263 83.6108 23.1703 83.8356 20.2583H85.6337V20.3703ZM87.2071 30.1143C87.2071 30.1143 87.2071 30.5623 87.2071 30.7863C86.9823 34.1463 86.7575 35.6023 86.1956 36.1623C85.8585 36.6103 85.4089 36.7223 84.7346 36.7223C84.1727 36.7223 83.1613 36.7223 82.0374 36.7223C82.0374 36.2743 81.8127 35.6023 81.4755 35.1543C82.487 35.2663 83.6108 35.2663 84.0603 35.2663C84.3975 35.2663 84.6223 35.2663 84.847 35.0423C85.1842 34.7063 85.4089 33.8103 85.5213 31.5703H81.026C80.3517 34.3703 78.6659 35.9383 73.9459 36.8343C73.8335 36.3863 73.3839 35.7143 73.0468 35.3783C76.9802 34.7063 78.4412 33.5863 79.1155 31.6823H74.6202V30.2263H79.4526C79.565 29.6663 79.565 29.1063 79.565 28.4343H81.3631C81.3631 29.1063 81.2508 29.6663 81.2508 30.2263H87.2071V30.1143ZM74.7325 23.6183C74.3954 23.1703 73.7211 22.3863 73.2716 21.9383L74.283 21.1543C74.8449 21.7143 75.5192 22.3863 75.8564 22.8343L74.7325 23.6183ZM80.9136 21.7143C80.3517 22.3863 79.7898 23.1703 79.3402 23.6183L78.3288 23.1703C78.7783 22.6103 79.2279 21.7143 79.565 21.1543L80.9136 21.7143ZM82.3746 23.5063C82.0374 23.0583 81.4755 22.3863 81.026 21.9383L81.9251 21.1543C82.3746 21.6023 83.0489 22.1623 83.386 22.6103L82.3746 23.5063ZM88.7804 21.7143C88.2185 22.4983 87.5442 23.2823 86.9823 23.7303L85.9708 23.2823C86.4204 22.7223 86.9823 21.8263 87.3194 21.1543L88.7804 21.7143Z" fill="white"/>
<path d="M106.874 24.402C106.874 24.402 106.874 24.962 106.874 25.186C106.649 32.578 106.537 35.154 105.975 35.938C105.638 36.498 105.301 36.61 104.739 36.722C104.177 36.834 103.39 36.834 102.491 36.722C102.491 36.274 102.267 35.602 102.042 35.154C102.828 35.266 103.615 35.266 103.952 35.266C104.289 35.266 104.402 35.266 104.627 34.93C105.076 34.482 105.189 32.13 105.301 25.97H103.166C102.941 30.786 102.154 34.594 99.0074 36.946C98.7827 36.61 98.2208 35.938 97.7712 35.714C97.8836 35.602 97.996 35.602 98.1084 35.49C95.5236 35.826 92.9388 36.05 91.0282 36.274L90.8035 34.818C91.8149 34.706 93.1635 34.594 94.5121 34.482V33.138H91.253V31.906H94.5121V31.01H91.253V25.634H94.5121V24.738H90.8035V23.506H94.5121V22.498C93.3883 22.61 92.2644 22.61 91.3654 22.722C91.3654 22.386 91.1406 21.826 90.9158 21.49C93.613 21.378 96.7598 21.042 98.6703 20.594L99.457 21.826C98.5579 22.05 97.3217 22.162 96.0855 22.274V23.394H99.6817V24.402H101.592C101.592 23.17 101.592 21.938 101.592 20.594H103.166C103.166 21.938 103.166 23.17 103.166 24.402H106.874ZM92.6016 27.762H94.3997V26.642H92.6016V27.762ZM94.5121 29.89V28.77H92.714V29.89H94.5121ZM95.9731 34.258C97.0969 34.146 98.2208 34.034 99.3446 33.922C100.806 31.906 101.255 29.218 101.367 25.97H99.457V24.626H95.8607V25.522H99.2322V31.01H95.8607V31.906H99.2322V33.138H95.8607V34.258H95.9731ZM97.996 27.762V26.642H96.0855V27.762H97.996ZM95.9731 28.77V29.89H97.996V28.77H95.9731Z" fill="white"/>
<path d="M117.101 24.2901C116.651 25.2981 116.202 26.3061 115.865 27.2021H118.225V28.6581H108.785V27.2021H111.482C111.369 26.4181 110.92 25.1861 110.47 24.2901L111.931 23.9541C112.381 24.8501 112.83 26.0821 113.055 26.8661L111.707 27.2021H114.404C114.853 26.3061 115.303 24.8501 115.64 23.9541L117.101 24.2901ZM117.888 23.8421H109.347V22.3861H112.943C112.718 21.8261 112.493 21.1541 112.269 20.7061L113.73 20.2581C114.067 20.9301 114.404 21.8261 114.629 22.3861H117.775V23.8421H117.888ZM109.796 30.1141H117.438V36.6101H115.752V35.9381H111.369V36.7221H109.796V30.1141ZM111.369 31.6821V34.4821H115.752V31.6821H111.369ZM125.08 21.9381C124.406 23.6181 123.619 25.6341 122.945 27.3141C124.518 28.9941 124.855 30.3381 124.855 31.5701C124.855 32.6901 124.631 33.5861 123.956 34.0341C123.619 34.2581 123.282 34.3701 122.833 34.4821C122.383 34.4821 121.821 34.4821 121.372 34.4821C121.372 34.0341 121.259 33.3621 120.922 32.9141C121.372 32.9141 121.821 32.9141 122.158 32.9141C122.383 32.9141 122.72 32.8021 122.833 32.6901C123.17 32.4661 123.282 32.0181 123.282 31.3461C123.282 30.3381 122.833 28.9941 121.372 27.5381C121.933 26.0821 122.608 24.2901 123.057 22.8341H120.585V36.8341H119.124V21.2661H123.732L123.956 21.1541L125.08 21.9381Z" fill="white"/>
<path d="M131.711 22.6101V36.8341H130.362V33.4741C129.126 33.6981 127.89 34.0341 126.766 34.2581L126.429 32.8021C126.766 32.8021 127.103 32.6901 127.44 32.6901V22.6101H126.541V21.1541H132.273V22.6101H131.711ZM130.475 22.6101H128.901V24.8501H130.475V22.6101ZM130.475 26.1941H128.901V28.4341H130.475V26.1941ZM128.901 32.3541C129.351 32.2421 129.913 32.1301 130.475 32.0181V29.7781H128.901V32.3541ZM142.949 28.5461C142.387 30.2261 141.6 31.6821 140.701 33.0261C140.926 34.2581 141.263 34.9301 141.6 34.9301C141.825 34.9301 142.05 34.0341 142.162 32.5781C142.387 32.9141 142.949 33.3621 143.174 33.4741C142.837 36.1621 142.162 36.8341 141.488 36.8341C140.589 36.8341 140.027 35.9381 139.578 34.3701C138.791 35.2661 137.779 36.0501 136.88 36.7221C136.656 36.3861 136.206 36.0501 135.869 35.8261C136.318 35.4901 136.768 35.1541 137.217 34.8181H136.206V34.3701H134.071V35.4901H132.722V27.8741H137.442V34.3701C138.004 33.9221 138.566 33.2501 139.016 32.6901C138.678 31.1221 138.566 29.2181 138.454 27.0901H132.16V25.6341H133.172C133.059 25.0741 132.947 24.2901 132.722 23.7301L133.846 23.5061C134.071 24.1781 134.296 24.9621 134.296 25.6341H135.419C135.644 24.9621 135.757 24.1781 135.869 23.5061L137.217 23.7301C136.993 24.4021 136.88 25.0741 136.656 25.6341H138.229C138.117 23.9541 138.117 22.1621 138.117 20.2581H139.578C139.578 22.1621 139.578 23.9541 139.69 25.6341H142.837V27.0901H139.69C139.802 28.5461 139.915 29.8901 140.027 31.0101C140.589 30.0021 141.039 28.9941 141.376 27.8741L142.949 28.5461ZM138.004 23.5061H132.61V22.1621H134.633C134.52 21.7141 134.296 21.1541 134.071 20.7061L135.419 20.4821C135.644 21.0421 135.869 21.7141 136.094 22.2741H137.892V23.5061H138.004ZM134.183 29.1061V30.4501H136.318V29.1061H134.183ZM136.431 33.1381V31.6821H134.296V33.1381H136.431ZM141.376 25.0741C141.151 24.1781 140.589 22.8341 140.139 21.9381L141.376 21.4901C141.938 22.4981 142.499 23.7301 142.724 24.6261L141.376 25.0741Z" fill="white"/>
<path d="M151.378 33.9221C150.142 34.9301 147.894 35.8261 145.983 36.2741C145.759 35.9381 145.309 35.3781 144.972 35.0421C146.77 34.8181 149.018 34.1461 150.142 33.3621L151.378 33.9221ZM160.818 31.2341V32.5781H153.738V36.7221H152.052V32.5781H145.084V31.2341H152.052V30.1141H146.77V28.8821H152.052V27.7621H145.871V26.5301H149.467C149.242 26.0821 149.018 25.4101 148.681 24.9621L149.692 24.7381H145.197V23.3941H147.894C147.669 22.7221 147.107 21.7141 146.545 20.9301L148.006 20.4821C148.568 21.2661 149.242 22.3861 149.467 23.0581L148.568 23.3941H150.591V20.2581H152.164V23.3941H153.963V20.2581H155.536V23.3941H157.446L156.772 23.1701C157.222 22.4981 157.784 21.3781 158.008 20.4821L159.694 20.9301C159.245 21.8261 158.683 22.7221 158.233 23.3941H160.818V24.7381H156.098L157.446 25.0741C156.997 25.6341 156.66 26.0821 156.323 26.5301H160.144V27.8741H153.738V28.9941H159.245V30.2261H153.738V31.3461H160.818V31.2341ZM150.366 24.7381C150.703 25.1861 151.041 25.8581 151.265 26.3061L150.479 26.5301H155.424L154.749 26.3061C155.086 25.8581 155.536 25.1861 155.761 24.7381H150.366ZM155.761 33.2501C157.334 33.8101 159.582 34.7061 160.706 35.2661L159.582 36.2741C158.458 35.7141 156.323 34.8181 154.637 34.1461L155.761 33.2501Z" fill="white"/>
<path d="M175.203 28.994C174.753 30.45 174.079 31.682 173.292 32.69C175.315 33.586 177.226 34.482 178.574 35.266L177.338 36.722C176.102 35.826 174.192 34.818 172.056 33.922C170.258 35.378 167.673 36.274 164.302 36.722C164.189 36.274 163.628 35.49 163.29 35.042C166.212 34.706 168.46 34.146 170.146 33.026C168.46 32.354 166.887 31.794 165.313 31.234C165.763 30.562 166.325 29.778 166.887 28.882H163.178V27.314H167.786C168.348 26.306 168.797 25.298 169.134 24.29L171.045 24.626C170.708 25.522 170.258 26.418 169.809 27.202H173.63C173.742 26.642 173.854 26.082 173.854 25.522L175.877 25.634C175.765 26.194 175.653 26.642 175.54 27.202H178.574V28.77H175.203V28.994ZM165.201 26.082H163.515V22.274H170.033C169.809 21.714 169.471 21.042 169.247 20.594L171.045 20.146C171.382 20.818 171.831 21.602 172.056 22.274H178.125V26.082H176.327V23.842H165.088V26.082H165.201ZM168.91 28.994C168.572 29.554 168.235 30.114 167.898 30.674C169.022 31.122 170.258 31.458 171.494 32.018C172.281 31.234 172.843 30.226 173.18 29.106H168.91V28.994Z" fill="white"/>
<path d="M189.7 34.8179H196.556V36.2739H181.384V34.8179H188.015V32.1299H183.182V30.6739H188.015V28.2099H183.969V26.7539C183.182 27.3139 182.396 27.7619 181.609 28.2099C181.384 27.7619 180.935 27.2019 180.597 26.8659C182.733 25.9699 185.205 24.1779 187.003 22.3859H184.194V20.8179H189.925C191.499 23.1699 194.533 25.5219 197.455 26.6419C197.118 26.9779 196.556 27.6499 196.331 28.0979C195.544 27.7619 194.758 27.3139 193.971 26.7539V28.0979H189.813V30.5619H194.758V32.0179H189.813V34.8179H189.7ZM183.969 26.8659H193.746C191.948 25.6339 190.15 24.0659 188.914 22.3859C187.565 23.9539 185.767 25.5219 183.969 26.8659Z" fill="white"/>
<path d="M203.074 24.7381C202.737 25.4101 202.4 26.0821 201.95 26.6421V36.8341H200.489V28.8821C200.04 29.4421 199.59 30.0021 199.141 30.4501C199.028 30.1141 198.466 29.3301 198.241 28.9941C199.59 27.7621 200.939 25.8581 201.725 24.0661L203.074 24.5141V24.1781H204.872C204.984 23.7301 205.097 23.2821 205.097 22.8341H203.636V21.6021H205.434C205.546 21.1541 205.546 20.7061 205.546 20.2581L207.007 20.3701C207.007 20.8181 206.895 21.1541 206.783 21.6021H209.592V24.0661H210.604V25.4101H203.074V24.7381ZM202.962 20.9301C202.062 22.3861 200.602 24.0661 199.365 25.0741C199.141 24.7381 198.803 24.0661 198.466 23.8421C199.59 22.9461 200.826 21.4901 201.501 20.3701L202.962 20.9301ZM208.131 34.7061V36.8341H206.67V34.7061H203.074C203.186 34.0341 203.411 32.9141 203.523 32.0181H202.849V30.7861H206.67V29.8901H203.636V26.3061H209.929V29.8901H208.131V30.7861H210.379V32.0181H208.131V33.4741H210.716V34.7061H208.131ZM206.67 33.4741V32.0181H204.872C204.76 32.4661 204.76 33.0261 204.647 33.4741H206.67ZM204.872 28.7701H208.581V27.4261H204.872V28.7701ZM206.558 22.8341C206.445 23.2821 206.445 23.7301 206.333 24.1781H208.131V22.8341H206.558ZM215.099 27.6501H213.75V34.8181C213.75 35.6021 213.638 36.1621 213.076 36.3861C212.514 36.6101 211.727 36.7221 210.604 36.7221C210.604 36.2741 210.379 35.6021 210.154 35.1541C210.941 35.1541 211.615 35.1541 211.84 35.1541C212.065 35.1541 212.177 35.0421 212.177 34.9301V27.6501H210.379V26.1941H215.099V27.6501ZM214.874 22.9461H210.716V21.4901H214.874V22.9461Z" fill="white"/>
<path d="M232.856 34.5939V36.1619H216.897V34.5939H223.977V30.4499H218.808V28.8819H223.977V25.2979H219.932C219.37 26.4179 218.808 27.3139 218.133 28.0979C217.796 27.7619 217.01 27.3139 216.56 27.0899C218.021 25.5219 219.145 23.0579 219.819 20.5939L221.505 21.0419C221.28 21.9379 220.943 22.8339 220.606 23.7299H223.865V20.3699H225.551V23.7299H231.844V25.4099H225.551V28.9939H231.17V30.5619H225.551V34.7059H232.856V34.5939Z" fill="white"/>
<path d="M245.218 29.666C244.544 30.002 243.869 30.338 243.195 30.674H249.264V36.722H247.69V36.274H240.273V36.834H238.7V32.466C237.576 32.802 236.452 33.138 235.44 33.362C235.328 33.026 234.879 32.242 234.654 31.906C237.126 31.458 239.711 30.674 241.959 29.666H234.991V28.322H241.622V27.202H236.901V25.858H241.622V24.85H236.002V21.042H249.938V24.85H243.195V25.858H247.016V26.866C247.69 26.418 248.252 25.858 248.814 25.298L250.163 26.082C249.376 26.866 248.477 27.65 247.465 28.322H250.837V29.666H245.218ZM239.936 22.162H237.463V23.618H239.936V22.162ZM247.578 31.906H240.161V32.914H247.578V31.906ZM247.578 35.042V33.922H240.161V35.042H247.578ZM241.509 23.618H244.094V22.162H241.509V23.618ZM244.656 28.322C245.33 27.986 245.892 27.538 246.454 27.202H243.083V28.322H244.656ZM245.555 23.618H248.14V22.162H245.555V23.618Z" fill="white"/>
<path d="M269.686 23.3901H264.198C263.777 23.881 263.339 24.3545 262.831 24.8279H268.862C269.125 24.372 269.423 23.881 269.686 23.3901ZM275.438 26.7216H263.69V27.9139C263.69 30.4564 263.216 34.121 260.797 36.3654C260.516 35.9621 259.657 35.2082 259.201 34.9627C261.393 32.9287 261.621 30.0355 261.621 27.8788V25.8799C261.288 26.1429 260.937 26.406 260.586 26.6514C260.288 26.1254 259.622 25.3188 259.183 24.9857C261.515 23.5654 263.076 21.6191 263.935 19.9183L266.197 20.3742C265.987 20.7599 265.759 21.1632 265.513 21.5665H270.879L271.212 21.4438L272.72 22.5309C272.299 23.1797 271.738 24.0388 271.177 24.8279H275.438V26.7216ZM268.459 34.2613H272.282C273.386 34.2613 273.544 33.9282 273.684 31.8766C274.14 32.2098 275.034 32.5429 275.595 32.6482C275.315 35.401 274.684 36.155 272.404 36.155H268.301C265.759 36.155 264.952 35.5764 264.952 33.4372V27.9139H273.088C273.088 27.9139 273.088 28.3873 273.071 28.6328C272.948 30.9298 272.772 32.0169 272.369 32.4728C272.036 32.841 271.615 32.9813 271.089 33.0514C270.616 33.104 269.792 33.104 268.88 33.0865C268.845 32.5254 268.634 31.789 268.336 31.298C269.073 31.3682 269.757 31.3857 270.055 31.3857C270.335 31.3857 270.475 31.3506 270.633 31.2103C270.774 31.0525 270.879 30.6142 270.966 29.7024H267.004V33.4021C267.004 34.1386 267.214 34.2613 268.459 34.2613ZM285.555 23.9512H289.307C288.553 23.4602 287.852 22.9166 287.238 22.3731C286.712 22.9342 286.151 23.4602 285.555 23.9512ZM284.818 25.5117V24.4947C284.275 24.8805 283.679 25.2487 283.083 25.5643C282.82 25.1961 282.223 24.5649 281.803 24.1966C281.61 24.8454 281.452 25.4766 281.277 26.0202C282.171 27.3703 282.346 28.6328 282.346 29.6323C282.346 30.7895 282.153 31.5435 281.645 31.9468C281.399 32.1572 281.084 32.2799 280.715 32.3325C280.435 32.3851 280.049 32.3851 279.698 32.3851C279.681 31.8766 279.541 31.1051 279.278 30.5791C279.541 30.6142 279.734 30.6142 279.926 30.5966C280.067 30.5966 280.225 30.5616 280.33 30.4564C280.523 30.2986 280.593 29.9128 280.593 29.3868C280.593 28.5802 280.452 27.4229 279.611 26.2131C279.891 25.161 280.207 23.7232 280.452 22.566H279.172V36.3479H277.437V20.7073H280.996L281.277 20.6372L282.574 21.3912C282.346 22.2153 282.083 23.1446 281.838 24.0564C283.837 23.0218 285.678 21.3912 286.66 19.7955L288.658 20.4969C288.553 20.6723 288.448 20.8651 288.325 21.0405C289.623 22.0925 291.534 23.1271 293.252 23.6882C292.954 24.2142 292.604 25.1084 292.463 25.6695C291.639 25.3188 290.798 24.8629 289.974 24.372V25.5117H284.818ZM289.29 27.7912V29.4043H290.517V27.7912H289.29ZM287.782 30.7895V26.3884H292.13V30.7895H287.782ZM284.257 27.7912V29.4043H285.432V27.7912H284.257ZM282.767 30.7895V26.3884H286.993V30.7895H282.767ZM284.135 30.9824L285.958 31.3682C285.853 31.7188 285.713 32.0695 285.572 32.4027C286.186 32.806 286.87 33.2969 287.238 33.6651L286.186 35.0503C285.888 34.6997 285.345 34.2438 284.801 33.8405C284.117 34.9101 283.275 35.7868 282.294 36.4531C282.013 36.1024 281.347 35.4186 280.943 35.138C282.486 34.2262 283.609 32.7534 284.135 30.9824ZM288.974 30.9649L290.85 31.2279C290.745 31.7188 290.622 32.1923 290.447 32.6482C291.429 33.332 292.569 34.1561 293.165 34.7523L291.937 36.155C291.446 35.629 290.587 34.9101 289.711 34.2613C289.185 35.138 288.536 35.8745 287.764 36.4355C287.501 36.0849 286.835 35.3835 286.432 35.1205C287.799 34.2262 288.641 32.7534 288.974 30.9649ZM298.215 20.0936L300.249 20.7249C299.793 21.9523 299.214 23.1972 298.565 24.372V36.3829H296.461V27.6158C296.093 28.0542 295.725 28.4925 295.374 28.8783C295.181 28.3698 294.585 27.1775 294.217 26.6514C295.812 25.0734 297.338 22.5835 298.215 20.0936ZM310.787 24.8629H305.807V26.704H310.348V28.5977H305.807V30.5791H310.576V32.5079H305.807V36.4005H303.668V24.8629H303.002C302.3 26.1605 301.494 27.3528 300.705 28.2646C300.371 27.8788 299.547 27.1424 299.109 26.8092C300.652 25.2312 302.037 22.7062 302.826 20.1988L304.843 20.7073C304.597 21.4438 304.317 22.1627 303.983 22.8816H310.787V24.8629ZM317.152 32.9988L318.625 33.6651C317.432 34.6646 315.328 35.5764 313.522 35.9972C313.259 35.5588 312.715 34.875 312.295 34.4892C314.048 34.2438 316.082 33.6476 317.152 32.9988ZM321.868 33.8755L323.271 32.8936C324.691 33.4197 326.76 34.2964 327.883 34.8575L326.41 35.9972C325.393 35.4186 323.341 34.4892 321.868 33.8755ZM322.605 24.5123H317.8C318.081 24.9506 318.362 25.4591 318.502 25.8273L317.555 26.0553H322.342L321.711 25.8624C321.991 25.4591 322.359 24.9331 322.605 24.5123ZM321.114 30.7018H327.918V32.4202H321.114V36.418H319.045V32.4202H312.365V30.7018H319.045V29.9303H313.995V28.4224H319.045V27.6334H313.119V26.0553H316.345C316.187 25.652 315.924 25.161 315.696 24.7753L316.871 24.5123H312.4V22.8816H314.785C314.522 22.2153 314.066 21.3736 313.662 20.7073L315.451 20.1112C315.977 20.8476 316.555 21.8997 316.783 22.566L315.942 22.8816H317.555V20.0235H319.484V22.8816H320.799V20.0235H322.763V22.8816H324.323L323.692 22.6887C324.095 21.9873 324.569 20.9177 324.814 20.1638L327.006 20.6723C326.515 21.4788 326.042 22.2679 325.603 22.8816H327.865V24.5123H323.236L324.884 24.9331C324.498 25.3539 324.13 25.7397 323.815 26.0553H327.199V27.6334H321.114V28.4224H326.375V29.9303H321.114V30.7018ZM332.406 28.7555L333.862 28.5802C333.774 28.1594 333.651 27.7386 333.546 27.3703C333.178 27.8438 332.792 28.3172 332.406 28.7555ZM335.931 30.4388L334.335 30.9473C334.3 30.7194 334.265 30.4564 334.212 30.1758C331.039 30.6317 330.46 30.8071 330.074 30.9824C329.969 30.5966 329.636 29.6323 329.391 29.1062C329.864 28.9835 330.25 28.5977 330.811 27.949C331.004 27.7035 331.407 27.2301 331.863 26.5638C330.583 26.7216 330.197 26.8268 329.934 26.9495C329.829 26.5638 329.513 25.652 329.285 25.1435C329.636 25.0558 329.917 24.7227 330.267 24.2142C330.618 23.7232 331.652 21.812 332.214 19.9709L334.107 20.7599C333.511 22.1627 332.687 23.6531 331.845 24.8805L333.02 24.7928C333.476 24.0564 333.914 23.2498 334.265 22.4608L336.036 23.5479C335.37 24.7753 334.581 26.0027 333.704 27.1599L335.002 26.7917C335.405 27.9665 335.808 29.5095 335.931 30.4388ZM330.109 31.5435L331.705 31.789C331.565 33.4021 331.284 35.1205 330.916 36.2251C330.583 36.0498 329.794 35.8043 329.373 35.6816C329.794 34.6295 330.004 33.0164 330.109 31.5435ZM331.986 31.7714L333.441 31.5084C333.634 32.6832 333.792 34.1912 333.827 35.2257L332.284 35.4887C332.284 34.4892 332.143 32.9462 331.986 31.7714ZM333.722 31.4383L335.089 30.9999C335.37 31.7714 335.668 32.7534 335.808 33.4197L334.388 33.8931C334.283 33.2443 333.985 32.1923 333.722 31.4383ZM338.736 29.2816L339.981 29.7024C339.403 32.4202 338.105 34.4366 336.282 35.5588C336.036 35.138 335.492 34.4542 335.107 34.1035C336.194 33.5073 337.123 32.3325 337.667 31.0175H336.089V29.3342H338.421L338.736 29.2816ZM338.649 25.7747V26.704H343.102V25.7747H338.649ZM338.649 23.4427V24.3194H343.102V23.4427H338.649ZM344.137 28.5276L345.697 29.8251C344.891 30.4564 344.102 31.1402 343.383 31.6662C344.067 32.6832 344.926 33.5599 345.943 34.086C345.505 34.4717 344.873 35.2257 344.575 35.7517C343.558 35.0503 342.717 34.0334 342.05 32.8235V34.3314C342.05 35.2608 341.892 35.7692 341.279 36.1024C340.7 36.4005 339.876 36.4355 338.754 36.4355C338.684 35.8745 338.438 35.0679 338.193 34.5243C338.842 34.5594 339.56 34.5594 339.771 34.5418C339.999 34.5418 340.069 34.4892 340.069 34.2964V28.2646H336.72V21.8821H339.21C339.438 21.2509 339.648 20.5671 339.771 20.0235L342.155 20.4443C341.892 20.9528 341.612 21.4262 341.366 21.8821H345.119V28.2646H342.05V28.8257C342.208 29.3166 342.383 29.7901 342.576 30.2284C343.155 29.6849 343.751 29.0361 344.137 28.5276ZM355.727 33.4372H363.144V35.5413H347.205V33.4372H353.483V20.2339H355.727V25.2487H361.917V27.3703H355.727V33.4372ZM374.243 25.915H372.227V26.8618H374.243V25.915ZM378.171 26.8618V25.915H376.102V26.8618H378.171ZM376.102 29.2991H378.171V28.3172H376.102V29.2991ZM372.227 29.2991H374.243V28.3172H372.227V29.2991ZM372.227 30.8071V33.4372H370.263V24.4071H374.191C373.384 24.0388 372.56 23.6882 371.841 23.3901L373.191 22.2854C373.805 22.5134 374.541 22.7939 375.243 23.1095C375.734 22.829 376.207 22.5134 376.645 22.1802H370.421V20.6021H378.469L378.89 20.4969L380.117 21.4788C379.24 22.3205 378.136 23.1797 376.996 23.8635C377.382 24.0564 377.75 24.2317 378.048 24.4071H380.17V31.6312C380.17 32.4903 380.012 32.9112 379.451 33.1917C378.907 33.4898 378.136 33.4898 377.101 33.4898C377.014 32.9813 376.803 32.315 376.575 31.8591C377.136 31.8766 377.732 31.8766 377.908 31.8766C378.118 31.8591 378.171 31.789 378.171 31.6136V30.8071H376.102V33.3671H374.243V30.8071H372.227ZM368.404 22.9342L366.493 23.6005C366.3 22.8114 365.844 21.5314 365.546 20.5846L367.387 20.0235C367.703 20.9703 368.159 22.1451 368.404 22.9342ZM368.562 27.8964L369.439 28.212C369.141 29.8076 368.667 31.4558 368.071 32.7709C368.352 32.9462 368.685 33.1917 369.158 33.4723C370.351 34.1912 371.999 34.2964 374.05 34.2964C376.067 34.2964 379.205 34.121 381.134 33.8405C380.906 34.4016 380.555 35.4186 380.538 35.9797C379.083 36.0673 375.997 36.1901 373.945 36.1901C371.613 36.1901 370.14 35.9972 368.878 35.2608C368.141 34.8575 367.528 34.2788 367.159 34.2788C366.756 34.2788 366.125 35.4712 365.704 36.4706L364.301 34.4892C364.915 33.7528 365.564 33.1742 366.142 32.8235C366.546 31.9468 366.896 30.8421 367.159 29.7725H364.95C365.353 28.738 365.827 27.3353 366.212 25.9676H364.634V24.109H368.737C368.369 25.3364 367.948 26.7391 367.545 27.9665H368.246L368.562 27.8964ZM384.694 28.2997H386.64C386.955 27.6509 387.271 26.8969 387.482 26.2657H384.799C385.097 26.8618 385.395 27.5632 385.483 28.0366L384.694 28.2997ZM387.131 23.3024V24.5123H389.936V26.2657H388.218L389.27 26.5287C388.972 27.1424 388.656 27.7386 388.376 28.2997H389.586V30.0531H387.131V31.4558H389.936V33.2092H387.131V36.3303H385.202V33.2092H382.169V31.4558H385.202V30.0531H382.589V28.2997H383.834C383.712 27.7736 383.449 27.1073 383.221 26.5638L384.203 26.2657H382.186V24.5123H385.202V23.3024H382.66V21.584H385.202V20.0761H387.131V21.584H389.533V23.3024H387.131ZM392.303 29.2114V34.5945C392.935 34.086 393.461 33.4898 393.934 32.8235C393.268 31.7539 392.742 30.5265 392.303 29.2114ZM395.88 28.4224H393.759C394.074 29.3342 394.478 30.2284 394.969 31.035C395.354 30.2284 395.652 29.3342 395.88 28.4224ZM396.81 26.6865L398.072 27.1424C397.739 29.2114 397.125 31.1227 396.249 32.7534C396.95 33.5424 397.757 34.1736 398.651 34.6295C398.212 35.0153 397.599 35.7692 397.283 36.2777C396.494 35.8043 395.775 35.1906 395.126 34.4542C394.548 35.2257 393.882 35.8745 393.128 36.4355C392.935 36.1375 392.619 35.8043 392.303 35.4887V36.3654H390.41V20.7599H397.651V24.0564C397.651 24.9506 397.458 25.4591 396.775 25.7397C396.108 26.0202 395.162 26.0377 393.882 26.0377C393.794 25.4766 393.531 24.7577 393.285 24.2492C394.145 24.2843 395.109 24.2843 395.372 24.2843C395.635 24.2668 395.723 24.2142 395.723 24.0213V22.5835H392.303V26.7742H396.477L396.81 26.6865ZM403.28 31.3331L405.402 32.0871C404.367 33.4197 402.806 34.8575 401.544 35.7166C401.106 35.3484 400.246 34.6646 399.72 34.349C401.035 33.6301 402.438 32.4377 403.28 31.3331ZM412.713 30.3862L408.908 30.6843V34.1561C408.908 35.1906 408.698 35.7166 407.926 36.0498C407.19 36.3654 406.191 36.3829 404.893 36.3829C404.788 35.7692 404.437 34.8925 404.139 34.349C405.033 34.384 406.103 34.384 406.401 34.384C406.699 34.3665 406.787 34.3139 406.787 34.1035V30.8597C402.806 31.1753 402.017 31.298 401.404 31.526C401.316 31.1577 401.018 30.1583 400.79 29.6498C401.491 29.5446 402.158 29.2816 403.227 28.7555C403.771 28.5276 404.788 28.0191 405.998 27.3002C403.192 27.4931 402.596 27.5808 402.193 27.7561C402.088 27.3528 401.789 26.3709 401.579 25.8273C402.052 25.7572 402.456 25.5643 403.052 25.2487C403.525 25.0208 404.7 24.3545 405.857 23.4777C404.174 23.8109 402.473 24.0739 400.86 24.2843C400.79 23.7583 400.509 22.9517 400.282 22.5134C404.314 21.9698 408.733 21.058 411.416 19.9183L412.959 21.5665C411.503 22.1451 409.768 22.6361 407.926 23.0394L408.873 23.6531C407.926 24.3545 406.927 25.0208 405.892 25.6169L408.926 25.4591C409.575 25.0032 410.188 24.5473 410.785 24.0564L412.328 25.4416C410.469 26.8443 408.435 28.0542 406.401 29.0536L411.346 28.7205C410.977 28.2821 410.592 27.8613 410.223 27.4755L411.959 26.5988C413.204 27.8438 414.642 29.4745 415.378 30.544L413.608 31.6136C413.38 31.2629 413.082 30.8421 412.713 30.3862ZM409.838 32.2098L411.538 31.1051C412.889 31.9994 414.625 33.3495 415.466 34.3139L413.625 35.5413C412.871 34.612 411.188 33.1917 409.838 32.2098ZM423.848 30.1583L422.34 30.772C422.305 30.5265 422.252 30.281 422.182 29.9829C418.675 30.5966 418.096 30.7895 417.711 30.9824C417.623 30.5966 417.307 29.6498 417.062 29.1238C417.535 29.001 417.903 28.6328 418.429 27.9665C418.657 27.721 419.043 27.2476 419.499 26.5813C418.202 26.7391 417.816 26.8268 417.57 26.9495C417.465 26.5462 417.149 25.6345 416.939 25.1084C417.272 25.0208 417.57 24.6876 417.921 24.1616C418.289 23.6706 419.341 21.7243 419.972 19.8657L421.831 20.6723C421.182 22.1627 420.306 23.7408 419.394 25.0383L420.551 24.9506C421.025 24.1265 421.515 23.1972 421.901 22.3205L423.62 23.3901C422.62 25.2838 421.305 27.195 419.972 28.7731L421.726 28.4925C421.568 28.0366 421.393 27.5808 421.217 27.195L422.62 26.6514C423.164 27.7736 423.69 29.2114 423.848 30.1583ZM417.623 31.5435L419.236 31.8065C419.113 33.3671 418.833 35.0328 418.465 36.0849C418.131 35.8745 417.342 35.629 416.922 35.5238C417.325 34.5068 417.518 32.9462 417.623 31.5435ZM419.604 31.7714L421.06 31.3857C421.27 32.5429 421.48 33.9983 421.533 34.9977L419.99 35.3835C419.955 34.4016 419.78 32.9112 419.604 31.7714ZM421.515 31.3506L422.918 30.8772C423.234 31.789 423.602 32.9638 423.777 33.7177L422.322 34.2613C422.182 33.4723 421.831 32.2624 421.515 31.3506ZM430.651 34.2438H431.37C431.685 34.2438 431.738 33.9106 431.791 31.8591C432.194 32.1747 433.018 32.5079 433.544 32.6306C433.369 35.3309 432.895 36.0849 431.58 36.0849H430.318C428.722 36.0849 428.371 35.4712 428.371 33.6301V28.4049L427.372 28.5276C427.232 32.2799 426.758 34.9101 423.9 36.4706C423.672 35.9621 423.076 35.1906 422.638 34.8399C424.952 33.6476 425.303 31.7188 425.408 28.7906C424.742 28.8783 424.461 28.966 424.216 29.0712C424.111 28.6679 423.76 27.6334 423.514 27.0723C423.935 26.9495 424.286 26.5287 424.724 25.8098C424.935 25.5292 425.338 24.8629 425.776 23.9862H423.69V22.0399H426.671C426.951 21.3561 427.232 20.6547 427.46 19.9358L429.722 20.532C429.511 21.0405 429.301 21.5314 429.073 22.0399H433.193V23.9862H428.091C427.565 24.9857 426.986 25.915 426.425 26.7566L430.125 26.406C429.844 25.9325 429.564 25.4766 429.318 25.0383L431.002 24.2843C431.896 25.6345 432.948 27.4229 433.369 28.6328L431.545 29.4745C431.422 29.0712 431.229 28.6153 431.002 28.1068L430.318 28.1945V33.6301C430.318 34.1736 430.353 34.2438 430.651 34.2438Z" fill="white"/>
</g>
<defs>
<radialGradient id="paint0_radial_115_5016" cx="0" cy="0" r="1" gradientUnits="userSpaceOnUse" gradientTransform="translate(28.114 27.9999) scale(28.1121 28.0162)">
<stop stop-color="white"/>
<stop offset="0.3365" stop-color="#FDFEFE"/>
<stop offset="0.4961" stop-color="#F5F9FC"/>
<stop offset="0.6184" stop-color="#E8F1F9"/>
<stop offset="0.7218" stop-color="#D6E5F4"/>
<stop offset="0.8131" stop-color="#BED6EE"/>
<stop offset="0.896" stop-color="#A1C4E6"/>
<stop offset="0.9709" stop-color="#7EAFDD"/>
<stop offset="1" stop-color="#6FA5D9"/>
</radialGradient>
<clipPath id="clip0_115_5016">
<rect width="443" height="56" fill="white"/>
</clipPath>
</defs>
</svg>
