<svg width="563" height="64" viewBox="0 0 563 64" fill="none" xmlns="http://www.w3.org/2000/svg">
<g clip-path="url(#clip0_15_4095)">
<g filter="url(#filter0_d_15_4095)">
<path d="M64.8169 32C64.8169 49.664 50.2979 64 32.4084 64C14.519 64 0 49.664 0 32C0 14.336 14.519 0 32.4084 0C50.2979 0 64.8169 14.336 64.8169 32Z" fill="url(#paint0_radial_15_4095)"/>
<path d="M25.2786 41.344C23.8526 41.344 22.6859 41.216 21.7785 40.96C20.871 40.704 19.9636 40.32 19.1858 39.936L20.7414 35.712H21.1303C21.7785 36.48 22.5563 37.12 23.4637 37.504C24.3711 37.888 25.4082 38.144 26.4453 38.144C26.7045 38.144 27.0935 38.144 27.4824 38.016C27.8713 38.016 28.2602 37.888 28.6491 37.76C29.038 37.632 29.2972 37.376 29.6861 37.248C29.9454 36.992 30.2047 36.736 30.3343 36.224C30.4639 35.712 30.4639 35.456 30.2047 35.072C29.9454 34.816 29.5565 34.56 29.1676 34.432C28.6491 34.304 28.0009 34.176 27.3527 33.92C26.7046 33.792 26.0564 33.536 25.5378 33.408C24.2415 32.896 23.5933 32.256 23.2044 31.36C22.9452 30.592 22.9452 29.44 23.4637 28.288C24.1119 26.624 25.2786 25.216 27.0935 24.192C28.9083 23.168 30.8528 22.656 33.0566 22.656C34.0937 22.656 35.1307 22.784 36.1678 23.04C37.2049 23.296 37.9827 23.552 38.7605 23.936L37.2049 28.032H36.816C36.2974 27.52 35.6493 27.008 34.8715 26.624C34.0937 26.24 33.0566 25.984 32.0195 25.984C31.6306 25.984 31.2417 25.984 30.8528 26.112C30.4639 26.112 30.075 26.24 29.6861 26.496C29.2972 26.624 29.038 26.88 28.7787 27.136C28.5194 27.392 28.2602 27.648 28.1305 28.032C28.0009 28.544 28.0009 28.8 28.2602 29.184C28.5194 29.44 29.038 29.696 29.9454 29.952C30.4639 30.08 31.1121 30.208 31.6306 30.336C32.1492 30.464 32.6677 30.592 33.3159 30.848C34.4826 31.36 35.1307 31.872 35.5196 32.64C35.9085 33.408 35.7789 34.432 35.39 35.712C34.7418 37.504 33.4455 38.912 31.6306 40.064C29.8158 40.832 27.7416 41.344 25.2786 41.344Z" fill="#004097"/>
<path d="M45.1125 41.472L51.4646 23.04H56.5203L62.8724 41.472H58.0759L56.9092 37.76H51.0757L49.909 41.472H45.1125ZM55.8722 34.304L53.9276 28.288L51.9831 34.304H55.8722Z" fill="#004097"/>
<path d="M47.9644 33.28H41.6124L38.6308 41.472H33.964L40.7049 23.04H45.3718L42.9087 29.824H49.2608L47.9644 33.28Z" fill="#004097"/>
<path d="M8.29649 37.376C6.61125 37.248 5.83345 35.584 6.48162 33.792C7.25942 32 9.20393 30.72 11.0188 30.976C12.704 31.104 13.4818 32.768 12.8337 34.56C12.0559 36.352 10.1114 37.632 8.29649 37.376Z" fill="#00913A"/>
<path d="M6.87051 24.448C10.5003 22.016 14.6485 21.376 17.7597 22.528C13.3522 22.784 8.68538 25.856 6.61124 30.208C5.96307 31.488 5.7038 32.896 5.57417 34.048C5.57417 34.048 5.57417 34.048 5.57417 34.176C3.50003 30.592 6.0927 25.856 6.87051 24.448Z" fill="#004097"/>
<path d="M18.2783 34.304L18.6672 34.176C18.6672 34.048 18.7969 33.92 18.7969 33.92C18.5376 34.176 18.408 34.304 18.2783 34.304ZM5.96312 35.584C4.79642 34.56 4.14825 33.152 4.14825 31.616C4.14825 31.36 4.14825 31.232 4.14825 30.976C4.14825 30.848 4.14825 30.72 4.14825 30.592C4.14825 30.464 4.14825 30.336 4.14825 30.208C4.14825 30.08 4.14825 29.952 4.14825 29.952C4.14825 29.824 4.14825 29.696 4.14825 29.696C4.14825 29.568 4.14825 29.44 4.14825 29.44C4.14825 29.312 4.14825 29.184 4.27788 29.184C4.27788 29.184 4.27788 29.184 4.27788 29.056C4.27788 28.928 4.27788 28.928 4.40752 28.8C4.40752 28.8 4.40752 28.8 4.40752 28.672C4.40752 28.544 4.40752 28.544 4.53715 28.416V28.288C4.53715 28.16 4.53715 28.16 4.66678 28.032V27.904C4.66678 27.776 4.66678 27.776 4.79642 27.648V27.52C4.79642 27.392 4.79642 27.392 4.92605 27.264C4.92605 27.264 4.92605 27.136 5.05569 27.136C5.18532 26.88 5.18532 26.752 5.18532 26.752C5.18532 26.752 5.18532 26.624 5.31495 26.624C5.31495 26.496 5.31495 26.496 5.44459 26.368C5.44459 26.368 5.44459 26.24 5.57422 26.24C5.57422 26.24 5.57422 26.112 5.70386 26.112C5.70386 25.984 5.83349 25.984 5.83349 25.856C5.83349 25.856 5.83349 25.728 5.96312 25.728C6.09276 25.6 6.09276 25.472 6.22239 25.344C5.70386 25.728 5.31495 26.112 4.79642 26.496C-3.19481e-05 30.976 -0.907468 37.12 2.59264 40.192C2.72228 40.32 2.85191 40.448 2.98155 40.576C2.98155 40.576 3.75935 41.216 5.44459 41.728C7.00019 42.112 8.81507 42.112 10.6299 41.6C11.5374 41.344 12.4448 41.088 13.2226 40.704C13.6115 40.448 14.1301 40.192 14.519 39.808C16.8524 37.12 17.5005 35.456 17.6302 34.688C13.6115 37.504 8.68543 38.016 5.96312 35.584Z" fill="#00913A"/>
<path d="M17.7598 23.04C15.8152 23.04 14.0004 23.808 12.704 24.448C12.1855 24.704 11.5373 24.96 11.0188 25.344C10.8892 25.344 10.8892 25.472 10.8892 25.472C11.667 25.344 12.4448 25.472 13.2226 25.6C18.019 26.368 19.9635 31.104 17.6301 36.096C16.9819 37.504 16.0745 38.656 15.0374 39.808C15.2967 39.68 15.556 39.552 15.6856 39.424C15.6856 39.424 15.6856 39.424 15.556 39.552C17.8894 38.144 19.8339 35.712 21.0006 33.024C21.2599 32.512 21.3895 32 21.5191 31.616C22.6858 26.88 21.2599 22.912 17.7598 23.04Z" fill="#EC6C00"/>
</g>
<g filter="url(#filter1_d_15_4095)">
<path d="M96.5807 22.3553C96.5807 23.9027 96.2957 25.1687 96.0108 26.294C97.4354 27.138 99.4299 28.404 100.57 29.248L99.4299 30.2327H100.285V34.4527H98.1477V32.0613H83.1892V34.4527H81.1947V30.2327H81.3372C81.1947 29.8107 80.7674 29.248 80.34 28.826C84.3289 27.8413 84.8988 26.0127 85.0412 22.2147H86.8932C86.8932 23.9027 86.7508 25.1687 86.3234 26.294C87.4631 26.9973 88.8877 27.8413 89.6 28.5447L88.1754 29.8107C87.6055 29.248 86.4658 28.5447 85.4686 27.8413C84.7563 28.9667 83.6166 29.67 81.7646 30.2327H98.5751C97.5779 29.5293 96.1533 28.5447 94.8711 27.7007C94.1588 28.826 92.8766 29.67 90.8822 30.2327C90.7397 29.8107 90.1699 29.1073 89.7425 28.6853C93.5889 27.7007 94.0163 25.872 94.3013 22.2147H96.5807V22.3553ZM98.5751 34.5933C98.5751 34.5933 98.5751 35.156 98.5751 35.4373C98.2902 39.6573 98.0053 41.486 97.293 42.1894C96.8656 42.752 96.2957 42.8927 95.441 42.8927C94.7286 42.8927 93.4465 42.8927 92.0219 42.8927C92.0219 42.33 91.7369 41.486 91.3096 40.9234C92.5917 41.064 94.0163 41.064 94.5862 41.064C95.0136 41.064 95.2985 41.064 95.5834 40.7827C96.0108 40.3607 96.2957 39.2353 96.4382 36.422H90.7397C89.8849 39.9387 87.748 41.908 81.7646 43.0334C81.6221 42.4707 81.0523 41.6267 80.6249 41.2047C85.6111 40.3607 87.4631 38.954 88.3178 36.5627H82.6194V34.734H88.7452C88.8877 34.0307 88.8877 33.3273 88.8877 32.4833H91.1671C91.1671 33.3273 91.0246 34.0307 91.0246 34.734H98.5751V34.5933ZM82.7618 26.4347C82.3344 25.872 81.4797 24.8873 80.9098 24.3247L82.192 23.34C82.9043 24.0433 83.7591 24.8873 84.1864 25.45L82.7618 26.4347ZM90.5972 24.0433C89.8849 24.8873 89.1726 25.872 88.6028 26.4347L87.3206 25.872C87.8905 25.1687 88.4603 24.0433 88.8877 23.34L90.5972 24.0433ZM92.4493 26.294C92.0219 25.7313 91.3096 24.8873 90.7397 24.3247L91.8794 23.34C92.4492 23.9027 93.304 24.606 93.7314 25.1687L92.4493 26.294ZM100.57 24.0433C99.8573 25.028 99.0025 26.0127 98.2902 26.5753L97.008 26.0127C97.5779 25.3093 98.2902 24.184 98.7176 23.34L100.57 24.0433Z" fill="black"/>
<path d="M123.506 27.4193C123.506 27.4193 123.506 28.1226 123.506 28.404C123.221 37.688 123.079 40.9233 122.366 41.908C121.939 42.6113 121.512 42.752 120.799 42.8927C120.087 43.0333 119.09 43.0333 117.95 42.8927C117.95 42.33 117.665 41.486 117.38 40.9233C118.377 41.064 119.375 41.064 119.802 41.064C120.229 41.064 120.372 41.064 120.657 40.642C121.227 40.0793 121.369 37.1253 121.512 29.3886H118.805C118.52 35.4373 117.523 40.22 113.534 43.174C113.249 42.752 112.536 41.908 111.967 41.6267C112.109 41.486 112.251 41.486 112.394 41.3453C109.117 41.7673 105.841 42.0487 103.419 42.33L103.134 40.5013C104.416 40.3606 106.126 40.22 107.835 40.0793V38.3913H103.704V36.844H107.835V35.7186H103.704V28.9666H107.835V27.8413H103.134V26.294H107.835V25.028C106.411 25.1686 104.986 25.1686 103.846 25.3093C103.846 24.8873 103.561 24.184 103.276 23.762C106.695 23.6213 110.684 23.1993 113.106 22.6366L114.104 24.184C112.964 24.4653 111.397 24.606 109.83 24.7466V26.1533H114.388V27.4193H116.81C116.81 25.872 116.81 24.3246 116.81 22.6366H118.805C118.805 24.3246 118.805 25.872 118.805 27.4193H123.506ZM105.413 31.6393H107.693V30.2326H105.413V31.6393ZM107.835 34.312V32.9053H105.556V34.312H107.835ZM109.687 39.798C111.112 39.6573 112.536 39.5166 113.961 39.376C115.813 36.844 116.383 33.468 116.525 29.3886H114.104V27.7006H109.545V28.826H113.819V35.7186H109.545V36.844H113.819V38.3913H109.545V39.798H109.687ZM112.251 31.6393V30.2326H109.83V31.6393H112.251ZM109.687 32.9053V34.312H112.251V32.9053H109.687Z" fill="black"/>
<path d="M136.47 27.2787C135.9 28.5447 135.33 29.8107 134.903 30.936H137.895V32.7647H125.928V30.936H129.347C129.204 29.9513 128.635 28.404 128.065 27.2787L129.917 26.8567C130.487 27.982 131.056 29.5293 131.341 30.514L129.632 30.936H133.051C133.621 29.8107 134.191 27.982 134.618 26.8567L136.47 27.2787ZM137.467 26.716H126.64V24.8873H131.199C130.914 24.184 130.629 23.34 130.344 22.7773L132.196 22.2147C132.624 23.0587 133.051 24.184 133.336 24.8873H137.325V26.716H137.467ZM127.21 34.5933H136.897V42.752H134.761V41.908H129.204V42.8927H127.21V34.5933ZM129.204 36.5627V40.0794H134.761V36.5627H129.204ZM146.585 24.3247C145.73 26.4347 144.733 28.9667 143.878 31.0767C145.873 33.1867 146.3 34.8747 146.3 36.422C146.3 37.8287 146.015 38.954 145.16 39.5167C144.733 39.798 144.305 39.9387 143.736 40.0794C143.166 40.0794 142.453 40.0794 141.884 40.0794C141.884 39.5167 141.741 38.6727 141.314 38.11C141.884 38.11 142.453 38.11 142.881 38.11C143.166 38.11 143.593 37.9693 143.736 37.8287C144.163 37.5473 144.305 36.9847 144.305 36.1407C144.305 34.8747 143.736 33.1867 141.884 31.358C142.596 29.5293 143.451 27.2787 144.021 25.45H140.886V43.0334H139.034V23.4807H144.875L145.16 23.34L146.585 24.3247Z" fill="black"/>
<path d="M154.99 25.1687V43.0334H153.281V38.8134C151.714 39.0947 150.146 39.5167 148.722 39.798L148.294 37.9693C148.722 37.9693 149.149 37.8287 149.577 37.8287V25.1687H148.437V23.34H155.702V25.1687H154.99ZM153.423 25.1687H151.429V27.982H153.423V25.1687ZM153.423 29.67H151.429V32.4833H153.423V29.67ZM151.429 37.4067C151.998 37.266 152.711 37.1253 153.423 36.9847V34.1713H151.429V37.4067ZM169.236 32.624C168.524 34.734 167.527 36.5627 166.387 38.2507C166.672 39.798 167.099 40.642 167.527 40.642C167.812 40.642 168.097 39.5167 168.239 37.688C168.524 38.11 169.236 38.6727 169.521 38.8134C169.094 42.1894 168.239 43.0334 167.384 43.0334C166.245 43.0334 165.532 41.908 164.963 39.9387C163.965 41.064 162.683 42.0487 161.543 42.8927C161.258 42.4707 160.689 42.0487 160.261 41.7673C160.831 41.3454 161.401 40.9233 161.971 40.5014H160.689V39.9387H157.982V41.3454H156.272V31.78H162.256V39.9387C162.968 39.376 163.68 38.532 164.25 37.8287C163.823 35.8593 163.68 33.468 163.538 30.7953H155.56V28.9667H156.842C156.7 28.2633 156.557 27.2787 156.272 26.5753L157.697 26.294C157.982 27.138 158.267 28.1227 158.267 28.9667H159.691C159.976 28.1227 160.119 27.138 160.261 26.294L161.971 26.5753C161.686 27.4193 161.543 28.2633 161.258 28.9667H163.253C163.111 26.8567 163.11 24.606 163.11 22.2147H164.963C164.963 24.606 164.963 26.8567 165.105 28.9667H169.094V30.7953H165.105C165.247 32.624 165.39 34.312 165.532 35.7187C166.245 34.4527 166.815 33.1867 167.242 31.78L169.236 32.624ZM162.968 26.294H156.13V24.606H158.694C158.552 24.0433 158.267 23.34 157.982 22.7773L159.691 22.496C159.976 23.1993 160.261 24.0433 160.546 24.7467H162.826V26.294H162.968ZM158.124 33.3273V35.0153H160.831V33.3273H158.124ZM160.974 38.3913V36.5627H158.267V38.3913H160.974ZM167.242 28.2633C166.957 27.138 166.245 25.45 165.675 24.3247L167.242 23.762C167.954 25.028 168.667 26.5753 168.951 27.7007L167.242 28.2633Z" fill="black"/>
<path d="M179.921 39.376C178.354 40.642 175.505 41.7674 173.083 42.33C172.798 41.908 172.228 41.2047 171.801 40.7827C174.08 40.5013 176.929 39.6573 178.354 38.6727L179.921 39.376ZM191.888 36V37.688H182.913V42.8927H180.776V37.688H171.943V36H180.776V34.5933H174.08V33.046H180.776V31.6393H172.94V30.092H177.499C177.214 29.5293 176.929 28.6853 176.502 28.1227L177.784 27.8413H172.086V26.1533H175.505C175.22 25.3093 174.507 24.0433 173.795 23.0587L175.647 22.496C176.359 23.4807 177.214 24.8873 177.499 25.7313L176.359 26.1533H178.924V22.2147H180.918V26.1533H183.198V22.2147H185.192V26.1533H187.614L186.759 25.872C187.329 25.028 188.041 23.6213 188.326 22.496L190.463 23.0587C189.893 24.184 189.181 25.3093 188.611 26.1533H191.888V27.8413H185.904L187.614 28.2633C187.044 28.9667 186.617 29.5293 186.189 30.092H191.033V31.78H182.913V33.1867H189.893V34.734H182.913V36.1407H191.888V36ZM178.639 27.8413C179.066 28.404 179.494 29.248 179.779 29.8107L178.781 30.092H185.05L184.195 29.8107C184.622 29.248 185.192 28.404 185.477 27.8413H178.639ZM185.477 38.532C187.471 39.2353 190.321 40.3607 191.745 41.064L190.321 42.33C188.896 41.6267 186.189 40.5013 184.052 39.6573L185.477 38.532Z" fill="black"/>
<path d="M210.123 33.1867C209.553 35.0153 208.698 36.5627 207.701 37.8287C210.265 38.954 212.687 40.0793 214.397 41.064L212.83 42.8927C211.263 41.7673 208.841 40.5013 206.134 39.376C203.855 41.2047 200.578 42.33 196.304 42.8927C196.162 42.33 195.449 41.3453 195.022 40.7827C198.726 40.3607 201.575 39.6573 203.712 38.2507C201.575 37.4067 199.581 36.7033 197.586 36C198.156 35.156 198.868 34.1713 199.581 33.046H194.88V31.0767H200.72C201.433 29.8107 202.003 28.5447 202.43 27.2787L204.852 27.7007C204.424 28.826 203.855 29.9513 203.285 30.936H208.129C208.271 30.2327 208.413 29.5293 208.413 28.826L210.978 28.9667C210.835 29.67 210.693 30.2327 210.55 30.936H214.397V32.9053H210.123V33.1867ZM197.444 29.5293H195.307V24.7467H203.57C203.285 24.0433 202.857 23.1993 202.572 22.6367L204.852 22.074C205.279 22.918 205.849 23.9027 206.134 24.7467H213.827V29.5293H211.548V26.716H197.301V29.5293H197.444ZM202.145 33.1867C201.718 33.89 201.29 34.5933 200.863 35.2967C202.288 35.8593 203.855 36.2813 205.422 36.9847C206.419 36 207.131 34.734 207.559 33.3273H202.145V33.1867Z" fill="black"/>
<path d="M228.501 40.5013H237.191V42.33H217.958V40.5013H226.364V37.1253H220.238V35.2967H226.364V32.202H221.235V30.3733C220.238 31.0767 219.241 31.6393 218.243 32.202C217.958 31.6393 217.389 30.936 216.961 30.514C219.668 29.3887 222.802 27.138 225.082 24.8873H221.52V22.918H228.786C230.78 25.872 234.626 28.826 238.331 30.2327C237.903 30.6547 237.191 31.4987 236.906 32.0613C235.909 31.6393 234.911 31.0767 233.914 30.3733V32.0613H228.643V35.156H234.911V36.9847H228.643V40.5013H228.501ZM221.235 30.514H233.629C231.35 28.9667 229.07 26.9973 227.503 24.8873C225.794 26.8567 223.514 28.826 221.235 30.514Z" fill="black"/>
<path d="M245.454 27.8413C245.026 28.6853 244.599 29.5293 244.029 30.2327V43.0334H242.177V33.046C241.607 33.7493 241.037 34.4527 240.467 35.0153C240.325 34.5933 239.613 33.6087 239.328 33.1867C241.037 31.6393 242.747 29.248 243.744 26.9973L245.454 27.56V27.138H247.733C247.876 26.5753 248.018 26.0127 248.018 25.45H246.166V23.9027H248.445C248.588 23.34 248.588 22.7773 248.588 22.2147L250.44 22.3553C250.44 22.918 250.297 23.34 250.155 23.9027H253.716V26.9973H254.999V28.6853H245.454V27.8413ZM245.311 23.0587C244.171 24.8873 242.319 26.9973 240.752 28.2633C240.467 27.8413 240.04 26.9973 239.613 26.716C241.037 25.5907 242.604 23.762 243.459 22.3553L245.311 23.0587ZM251.864 40.3607V43.0334H250.012V40.3607H245.454C245.596 39.5167 245.881 38.11 246.023 36.9847H245.169V35.4373H250.012V34.312H246.166V29.8107H254.144V34.312H251.864V35.4373H254.714V36.9847H251.864V38.8134H255.141V40.3607H251.864ZM250.012 38.8134V36.9847H247.733C247.591 37.5473 247.591 38.2507 247.448 38.8134H250.012ZM247.733 32.9053H252.434V31.2173H247.733V32.9053ZM249.87 25.45C249.728 26.0127 249.727 26.5753 249.585 27.138H251.864V25.45H249.87ZM260.697 31.4987H258.988V40.5014C258.988 41.486 258.845 42.1894 258.133 42.4707C257.42 42.752 256.423 42.8927 254.999 42.8927C254.999 42.33 254.714 41.486 254.429 40.9234C255.426 40.9234 256.281 40.9234 256.566 40.9234C256.851 40.9234 256.993 40.7827 256.993 40.642V31.4987H254.714V29.67H260.697V31.4987ZM260.412 25.5907H255.141V23.762H260.412V25.5907Z" fill="black"/>
<path d="M283.206 40.22V42.1893H262.976V40.22H271.952V35.0153H265.398V33.046H271.952V28.5447H266.823C266.111 29.9513 265.398 31.0767 264.544 32.0613C264.116 31.6393 263.119 31.0767 262.549 30.7953C264.401 28.826 265.826 25.7313 266.68 22.6366L268.817 23.1993C268.532 24.3247 268.105 25.45 267.678 26.5753H271.809V22.3553H273.946V26.5753H281.924V28.6853H273.946V33.1867H281.069V35.156H273.946V40.3607H283.206V40.22Z" fill="black"/>
<path d="M298.877 34.0307C298.022 34.4527 297.167 34.8747 296.313 35.2967H304.006V42.8927H302.011V42.33H292.609V43.0333H290.614V37.5473C289.189 37.9693 287.765 38.3913 286.483 38.6727C286.34 38.2507 285.77 37.266 285.485 36.844C288.62 36.2813 291.896 35.2967 294.746 34.0307H285.913V32.3427H294.318V30.936H288.335V29.248H294.318V27.982H287.195V23.1993H304.86V27.982H296.313V29.248H301.156V30.514C302.011 29.9513 302.723 29.248 303.436 28.5447L305.145 29.5293C304.148 30.514 303.008 31.4987 301.726 32.3427H306V34.0307H298.877ZM292.181 24.606H289.047V26.4347H292.181V24.606ZM301.869 36.844H292.466V38.11H301.869V36.844ZM301.869 40.7827V39.376H292.466V40.7827H301.869ZM294.176 26.4347H297.452V24.606H294.176V26.4347ZM298.165 32.3427C299.019 31.9207 299.732 31.358 300.444 30.936H296.17V32.3427H298.165ZM299.304 26.4347H302.581V24.606H299.304V26.4347Z" fill="black"/>
</g>
<g filter="url(#filter2_d_15_4095)">
<path d="M326 26.28C325.64 26.952 325.232 27.624 324.872 28.248H316.616C317.312 27.6 317.912 26.952 318.488 26.28H326ZM333.872 30.84V28.248H328.04C328.808 27.168 329.576 25.992 330.152 25.104L328.088 23.616L327.632 23.784H320.288C320.624 23.232 320.936 22.68 321.224 22.152L318.128 21.528C316.952 23.856 314.816 26.52 311.624 28.464C312.224 28.92 313.136 30.024 313.544 30.744C314.024 30.408 314.504 30.048 314.96 29.688V32.424C314.96 35.376 314.648 39.336 311.648 42.12C312.272 42.456 313.448 43.488 313.832 44.04C317.144 40.968 317.792 35.952 317.792 32.472V30.84H333.872ZM324.32 41.16C322.616 41.16 322.328 40.992 322.328 39.984V34.92H327.752C327.632 36.168 327.488 36.768 327.296 36.984C327.08 37.176 326.888 37.224 326.504 37.224C326.096 37.224 325.16 37.2 324.152 37.104C324.56 37.776 324.848 38.784 324.896 39.552C326.144 39.576 327.272 39.576 327.92 39.504C328.64 39.408 329.216 39.216 329.672 38.712C330.224 38.088 330.464 36.6 330.632 33.456C330.656 33.12 330.656 32.472 330.656 32.472H319.52V40.032C319.52 42.96 320.624 43.752 324.104 43.752H329.72C332.84 43.752 333.704 42.72 334.088 38.952C333.32 38.808 332.096 38.352 331.472 37.896C331.28 40.704 331.064 41.16 329.552 41.16H324.32ZM347.72 27.048C348.536 26.376 349.304 25.656 350.024 24.888C350.864 25.632 351.824 26.376 352.856 27.048H347.72ZM346.712 29.184H353.768V27.624C354.896 28.296 356.048 28.92 357.176 29.4C357.368 28.632 357.848 27.408 358.256 26.688C355.904 25.92 353.288 24.504 351.512 23.064C351.68 22.824 351.824 22.56 351.968 22.32L349.232 21.36C347.888 23.544 345.368 25.776 342.632 27.192C342.968 25.944 343.328 24.672 343.64 23.544L341.864 22.512L341.48 22.608H336.608V44.016H338.984V25.152H340.736C340.4 26.736 339.968 28.704 339.584 30.144C340.736 31.8 340.928 33.384 340.928 34.488C340.928 35.208 340.832 35.736 340.568 35.952C340.424 36.096 340.208 36.144 340.016 36.144C339.752 36.168 339.488 36.168 339.128 36.12C339.488 36.84 339.68 37.896 339.704 38.592C340.184 38.592 340.712 38.592 341.096 38.52C341.6 38.448 342.032 38.28 342.368 37.992C343.064 37.44 343.328 36.408 343.328 34.824C343.328 33.456 343.088 31.728 341.864 29.88C342.104 29.136 342.32 28.272 342.584 27.384C343.16 27.888 343.976 28.752 344.336 29.256C345.152 28.824 345.968 28.32 346.712 27.792V29.184ZM352.832 32.304H354.512V34.512H352.832V32.304ZM350.768 36.408H356.72V30.384H350.768V36.408ZM345.944 32.304H347.552V34.512H345.944V32.304ZM343.904 36.408H349.688V30.384H343.904V36.408ZM345.776 36.672C345.056 39.096 343.52 41.112 341.408 42.36C341.96 42.744 342.872 43.68 343.256 44.16C344.6 43.248 345.752 42.048 346.688 40.584C347.432 41.136 348.176 41.76 348.584 42.24L350.024 40.344C349.52 39.84 348.584 39.168 347.744 38.616C347.936 38.16 348.128 37.68 348.272 37.2L345.776 36.672ZM352.4 36.648C351.944 39.096 350.792 41.112 348.92 42.336C349.472 42.696 350.384 43.656 350.744 44.136C351.8 43.368 352.688 42.36 353.408 41.16C354.608 42.048 355.784 43.032 356.456 43.752L358.136 41.832C357.32 41.016 355.76 39.888 354.416 38.952C354.656 38.328 354.824 37.68 354.968 37.008L352.4 36.648ZM365.048 21.768C363.848 25.176 361.76 28.584 359.576 30.744C360.08 31.464 360.896 33.096 361.16 33.792C361.64 33.264 362.144 32.664 362.648 32.064V44.064H365.528V27.624C366.416 26.016 367.208 24.312 367.832 22.632L365.048 21.768ZM382.256 28.296V25.584H372.944C373.4 24.6 373.784 23.616 374.12 22.608L371.36 21.912C370.28 25.344 368.384 28.8 366.272 30.96C366.872 31.416 368 32.424 368.456 32.952C369.536 31.704 370.64 30.072 371.6 28.296H372.512V44.088H375.44V38.76H381.968V36.12H375.44V33.408H381.656V30.816H375.44V28.296H382.256ZM390.968 39.432C389.504 40.32 386.72 41.136 384.32 41.472C384.896 42 385.64 42.936 386 43.536C388.472 42.96 391.352 41.712 392.984 40.344L390.968 39.432ZM397.424 40.632C399.44 41.472 402.248 42.744 403.64 43.536L405.656 41.976C404.12 41.208 401.288 40.008 399.344 39.288L397.424 40.632ZM398.432 27.816C398.096 28.392 397.592 29.112 397.208 29.664L398.072 29.928H391.52L392.816 29.616C392.624 29.112 392.24 28.416 391.856 27.816H398.432ZM396.392 36.288V35.232H403.592V33.168H396.392V32.088H404.72V29.928H400.088C400.52 29.496 401.024 28.968 401.552 28.392L399.296 27.816H405.632V25.584H402.536C403.136 24.744 403.784 23.664 404.456 22.56L401.456 21.864C401.12 22.896 400.472 24.36 399.92 25.32L400.784 25.584H398.648V21.672H395.96V25.584H394.16V21.672H391.52V25.584H389.312L390.464 25.152C390.152 24.24 389.36 22.8 388.64 21.792L386.192 22.608C386.744 23.52 387.368 24.672 387.728 25.584H384.464V27.816H390.584L388.976 28.176C389.288 28.704 389.648 29.376 389.864 29.928H385.448V32.088H393.56V33.168H386.648V35.232H393.56V36.288H384.416V38.64H393.56V44.112H396.392V38.64H405.704V36.288H396.392ZM411.848 33.624C412.376 33.024 412.904 32.376 413.408 31.728C413.552 32.232 413.72 32.808 413.84 33.384L411.848 33.624ZM416.672 35.928C416.504 34.656 415.952 32.544 415.4 30.936L413.624 31.44C414.824 29.856 415.904 28.176 416.816 26.496L414.392 25.008C413.912 26.088 413.312 27.192 412.688 28.2L411.08 28.32C412.232 26.64 413.36 24.6 414.176 22.68L411.584 21.6C410.816 24.12 409.4 26.736 408.92 27.408C408.44 28.104 408.056 28.56 407.576 28.68C407.888 29.376 408.32 30.624 408.464 31.152C408.824 30.984 409.352 30.84 411.104 30.624C410.48 31.536 409.928 32.184 409.664 32.52C408.896 33.408 408.368 33.936 407.72 34.104C408.056 34.824 408.512 36.144 408.656 36.672C409.184 36.432 409.976 36.192 414.32 35.568C414.392 35.952 414.44 36.312 414.488 36.624L416.672 35.928ZM408.704 37.44C408.56 39.456 408.272 41.664 407.696 43.104C408.272 43.272 409.352 43.608 409.808 43.848C410.312 42.336 410.696 39.984 410.888 37.776L408.704 37.44ZM411.272 37.752C411.488 39.36 411.68 41.472 411.68 42.84L413.792 42.48C413.744 41.064 413.528 39 413.264 37.392L411.272 37.752ZM413.648 37.296C414.008 38.328 414.416 39.768 414.56 40.656L416.504 40.008C416.312 39.096 415.904 37.752 415.52 36.696L413.648 37.296ZM420.512 34.344L420.08 34.416H416.888V36.72H419.048C418.304 38.52 417.032 40.128 415.544 40.944C416.072 41.424 416.816 42.36 417.152 42.936C419.648 41.4 421.424 38.64 422.216 34.92L420.512 34.344ZM420.392 29.544H426.488V30.816H420.392V29.544ZM420.392 26.352H426.488V27.552H420.392V26.352ZM427.904 33.312C427.376 34.008 426.56 34.896 425.768 35.64C425.504 35.04 425.264 34.392 425.048 33.72V32.952H429.248V24.216H424.112C424.448 23.592 424.832 22.944 425.192 22.248L421.928 21.672C421.76 22.416 421.472 23.352 421.16 24.216H417.752V32.952H422.336V41.208C422.336 41.472 422.24 41.544 421.928 41.544C421.64 41.568 420.656 41.568 419.768 41.52C420.104 42.264 420.44 43.368 420.536 44.136C422.072 44.136 423.2 44.088 423.992 43.68C424.832 43.224 425.048 42.528 425.048 41.256V39.192C425.96 40.848 427.112 42.24 428.504 43.2C428.912 42.48 429.776 41.448 430.376 40.92C428.984 40.2 427.808 39 426.872 37.608C427.856 36.888 428.936 35.952 430.04 35.088L427.904 33.312ZM443.768 40.032V31.728H452.24V28.824H443.768V21.96H440.696V40.032H432.104V42.912H453.92V40.032H443.768ZM469.112 29.736V31.032H466.352V29.736H469.112ZM474.488 31.032H471.656V29.736H474.488V31.032ZM471.656 34.368V33.024H474.488V34.368H471.656ZM466.352 34.368V33.024H469.112V34.368H466.352ZM466.352 36.432H469.112V39.936H471.656V36.432H474.488V37.536C474.488 37.776 474.416 37.872 474.128 37.896C473.888 37.896 473.072 37.896 472.304 37.872C472.616 38.496 472.904 39.408 473.024 40.104C474.44 40.104 475.496 40.104 476.24 39.696C477.008 39.312 477.224 38.736 477.224 37.56V27.672H474.32C473.912 27.432 473.408 27.192 472.88 26.928C474.44 25.992 475.952 24.816 477.152 23.664L475.472 22.32L474.896 22.464H463.88V24.624H472.4C471.8 25.08 471.152 25.512 470.48 25.896C469.52 25.464 468.512 25.08 467.672 24.768L465.824 26.28C466.808 26.688 467.936 27.168 469.04 27.672H463.664V40.032H466.352V36.432ZM461.12 25.656C460.784 24.576 460.16 22.968 459.728 21.672L457.208 22.44C457.616 23.736 458.24 25.488 458.504 26.568L461.12 25.656ZM461.336 32.448L460.904 32.544H459.944C460.496 30.864 461.072 28.944 461.576 27.264H455.96V29.808H458.12C457.592 31.68 456.944 33.6 456.392 35.016H459.416C459.056 36.48 458.576 37.992 458.024 39.192C457.232 39.672 456.344 40.464 455.504 41.472L457.424 44.184C458 42.816 458.864 41.184 459.416 41.184C459.92 41.184 460.76 41.976 461.768 42.528C463.496 43.536 465.512 43.8 468.704 43.8C471.512 43.8 475.736 43.632 477.728 43.512C477.752 42.744 478.232 41.352 478.544 40.584C475.904 40.968 471.608 41.208 468.848 41.208C466.04 41.208 463.784 41.064 462.152 40.08C461.504 39.696 461.048 39.36 460.664 39.12C461.48 37.32 462.128 35.064 462.536 32.88L461.336 32.448ZM483.416 33L484.496 32.64C484.376 31.992 483.968 31.032 483.56 30.216H487.232C486.944 31.08 486.512 32.112 486.08 33H483.416ZM486.752 26.16H490.04V23.808H486.752V21.744H484.112V23.808H480.632V26.16H484.112V27.816H479.984V30.216H482.744L481.4 30.624C481.712 31.368 482.072 32.28 482.24 33H480.536V35.4H484.112V37.32H479.96V39.72H484.112V43.992H486.752V39.72H490.592V37.32H486.752V35.4H490.112V33H488.456C488.84 32.232 489.272 31.416 489.68 30.576L488.24 30.216H490.592V27.816H486.752V26.16ZM493.832 34.248C494.432 36.048 495.152 37.728 496.064 39.192C495.416 40.104 494.696 40.92 493.832 41.616V34.248ZM498.728 33.168C498.416 34.416 498.008 35.64 497.48 36.744C496.808 35.64 496.256 34.416 495.824 33.168H498.728ZM500 30.792L499.544 30.912H493.832V25.176H498.512V27.144C498.512 27.408 498.392 27.48 498.032 27.504C497.672 27.504 496.352 27.504 495.176 27.456C495.512 28.152 495.872 29.136 495.992 29.904C497.744 29.904 499.04 29.88 499.952 29.496C500.888 29.112 501.152 28.416 501.152 27.192V22.68H491.24V44.04H493.832V42.84C494.264 43.272 494.696 43.728 494.96 44.136C495.992 43.368 496.904 42.48 497.696 41.424C498.584 42.432 499.568 43.272 500.648 43.92C501.08 43.224 501.92 42.192 502.52 41.664C501.296 41.04 500.192 40.176 499.232 39.096C500.432 36.864 501.272 34.248 501.728 31.416L500 30.792ZM508.856 37.152C507.704 38.664 505.784 40.296 503.984 41.28C504.704 41.712 505.88 42.648 506.48 43.152C508.208 41.976 510.344 40.008 511.76 38.184L508.856 37.152ZM521.768 35.856C522.272 36.48 522.68 37.056 522.992 37.536L525.416 36.072C524.408 34.608 522.44 32.376 520.736 30.672L518.36 31.872C518.864 32.4 519.392 32.976 519.896 33.576L513.128 34.032C515.912 32.664 518.696 31.008 521.24 29.088L519.128 27.192C518.312 27.864 517.472 28.488 516.584 29.112L512.432 29.328C513.848 28.512 515.216 27.6 516.512 26.64L515.216 25.8C517.736 25.248 520.112 24.576 522.104 23.784L519.992 21.528C516.32 23.088 510.272 24.336 504.752 25.08C505.064 25.68 505.448 26.784 505.544 27.504C507.752 27.216 510.08 26.856 512.384 26.4C510.8 27.6 509.192 28.512 508.544 28.824C507.728 29.256 507.176 29.52 506.528 29.616C506.816 30.36 507.224 31.704 507.368 32.256C507.92 32.016 508.736 31.896 512.576 31.632C510.92 32.616 509.528 33.312 508.784 33.624C507.32 34.344 506.408 34.704 505.448 34.848C505.76 35.544 506.168 36.912 506.288 37.416C507.128 37.104 508.208 36.936 513.656 36.504V40.944C513.656 41.232 513.536 41.304 513.128 41.328C512.72 41.328 511.256 41.328 510.032 41.28C510.44 42.024 510.92 43.224 511.064 44.064C512.84 44.064 514.208 44.04 515.216 43.608C516.272 43.152 516.56 42.432 516.56 41.016V36.264L521.768 35.856ZM517.832 38.352C519.68 39.696 521.984 41.64 523.016 42.912L525.536 41.232C524.384 39.912 522.008 38.064 520.16 36.84L517.832 38.352ZM537.008 35.544C536.792 34.248 536.072 32.28 535.328 30.744L533.408 31.488C533.648 32.016 533.888 32.64 534.104 33.264L531.704 33.648C533.528 31.488 535.328 28.872 536.696 26.28L534.344 24.816C533.816 26.016 533.144 27.288 532.496 28.416L530.912 28.536C532.16 26.76 533.36 24.6 534.248 22.56L531.704 21.456C530.84 24 529.4 26.664 528.896 27.336C528.416 28.056 528.008 28.512 527.552 28.632C527.84 29.352 528.272 30.6 528.416 31.152C528.752 30.984 529.28 30.864 531.056 30.648C530.432 31.56 529.904 32.208 529.592 32.544C528.872 33.456 528.368 33.96 527.72 34.128C528.056 34.848 528.488 36.144 528.608 36.672C529.136 36.408 529.928 36.144 534.728 35.304C534.824 35.712 534.896 36.048 534.944 36.384L537.008 35.544ZM528.488 37.44C528.344 39.36 528.08 41.496 527.528 42.888C528.104 43.032 529.184 43.368 529.64 43.656C530.144 42.216 530.528 39.936 530.696 37.8L528.488 37.44ZM531.2 37.752C531.44 39.312 531.68 41.352 531.728 42.696L533.84 42.168C533.768 40.8 533.48 38.808 533.192 37.224L531.2 37.752ZM533.816 37.176C534.248 38.424 534.728 40.08 534.92 41.16L536.912 40.416C536.672 39.384 536.168 37.776 535.736 36.528L533.816 37.176ZM546.32 41.136C545.912 41.136 545.864 41.04 545.864 40.296V32.856L546.8 32.736C547.112 33.432 547.376 34.056 547.544 34.608L550.04 33.456C549.464 31.8 548.024 29.352 546.8 27.504L544.496 28.536C544.832 29.136 545.216 29.76 545.6 30.408L540.536 30.888C541.304 29.736 542.096 28.464 542.816 27.096H549.8V24.432H544.16C544.472 23.736 544.76 23.064 545.048 22.368L541.952 21.552C541.64 22.536 541.256 23.496 540.872 24.432H536.792V27.096H539.648C539.048 28.296 538.496 29.208 538.208 29.592C537.608 30.576 537.128 31.152 536.552 31.32C536.888 32.088 537.368 33.504 537.512 34.056C537.848 33.912 538.232 33.792 539.144 33.672C539 37.68 538.52 40.32 535.352 41.952C535.952 42.432 536.768 43.488 537.08 44.184C540.992 42.048 541.64 38.448 541.832 33.312L543.2 33.144V40.296C543.2 42.816 543.68 43.656 545.864 43.656H547.592C549.392 43.656 550.04 42.624 550.28 38.928C549.56 38.76 548.432 38.304 547.88 37.872C547.808 40.68 547.736 41.136 547.304 41.136H546.32Z" fill="url(#paint1_linear_15_4095)"/>
</g>
</g>
<defs>
<filter id="filter0_d_15_4095" x="-6" y="-6" width="76.8169" height="76" filterUnits="userSpaceOnUse" color-interpolation-filters="sRGB">
<feFlood flood-opacity="0" result="BackgroundImageFix"/>
<feColorMatrix in="SourceAlpha" type="matrix" values="0 0 0 0 0 0 0 0 0 0 0 0 0 0 0 0 0 0 127 0" result="hardAlpha"/>
<feOffset/>
<feGaussianBlur stdDeviation="3"/>
<feComposite in2="hardAlpha" operator="out"/>
<feColorMatrix type="matrix" values="0 0 0 0 1 0 0 0 0 1 0 0 0 0 1 0 0 0 1 0"/>
<feBlend mode="normal" in2="BackgroundImageFix" result="effect1_dropShadow_15_4095"/>
<feBlend mode="normal" in="SourceGraphic" in2="effect1_dropShadow_15_4095" result="shape"/>
</filter>
<filter id="filter1_d_15_4095" x="74.34" y="16.074" width="237.66" height="33.1" filterUnits="userSpaceOnUse" color-interpolation-filters="sRGB">
<feFlood flood-opacity="0" result="BackgroundImageFix"/>
<feColorMatrix in="SourceAlpha" type="matrix" values="0 0 0 0 0 0 0 0 0 0 0 0 0 0 0 0 0 0 127 0" result="hardAlpha"/>
<feOffset/>
<feGaussianBlur stdDeviation="3"/>
<feComposite in2="hardAlpha" operator="out"/>
<feColorMatrix type="matrix" values="0 0 0 0 1 0 0 0 0 1 0 0 0 0 1 0 0 0 1 0"/>
<feBlend mode="normal" in2="BackgroundImageFix" result="effect1_dropShadow_15_4095"/>
<feBlend mode="normal" in="SourceGraphic" in2="effect1_dropShadow_15_4095" result="shape"/>
</filter>
<filter id="filter2_d_15_4095" x="305.624" y="15.36" width="250.656" height="34.824" filterUnits="userSpaceOnUse" color-interpolation-filters="sRGB">
<feFlood flood-opacity="0" result="BackgroundImageFix"/>
<feColorMatrix in="SourceAlpha" type="matrix" values="0 0 0 0 0 0 0 0 0 0 0 0 0 0 0 0 0 0 127 0" result="hardAlpha"/>
<feOffset/>
<feGaussianBlur stdDeviation="3"/>
<feComposite in2="hardAlpha" operator="out"/>
<feColorMatrix type="matrix" values="0 0 0 0 1 0 0 0 0 1 0 0 0 0 1 0 0 0 1 0"/>
<feBlend mode="normal" in2="BackgroundImageFix" result="effect1_dropShadow_15_4095"/>
<feBlend mode="normal" in="SourceGraphic" in2="effect1_dropShadow_15_4095" result="shape"/>
</filter>
<radialGradient id="paint0_radial_15_4095" cx="0" cy="0" r="1" gradientUnits="userSpaceOnUse" gradientTransform="translate(32.4294 31.9999) scale(32.4272 32.0185)">
<stop stop-color="white"/>
<stop offset="0.3365" stop-color="#FDFEFE"/>
<stop offset="0.4961" stop-color="#F5F9FC"/>
<stop offset="0.6184" stop-color="#E8F1F9"/>
<stop offset="0.7218" stop-color="#D6E5F4"/>
<stop offset="0.8131" stop-color="#BED6EE"/>
<stop offset="0.896" stop-color="#A1C4E6"/>
<stop offset="0.9709" stop-color="#7EAFDD"/>
<stop offset="1" stop-color="#6FA5D9"/>
</radialGradient>
<linearGradient id="paint1_linear_15_4095" x1="445.5" y1="17" x2="445.5" y2="47" gradientUnits="userSpaceOnUse">
<stop stop-color="#637FE3"/>
<stop offset="0.286458" stop-color="#1E50D1"/>
<stop offset="1" stop-color="#0D408D"/>
</linearGradient>
<clipPath id="clip0_15_4095">
<rect width="563" height="64" fill="white"/>
</clipPath>
</defs>
</svg>
